<?xml version="1.0" standalone="no"?>
<!DOCTYPE svg PUBLIC "-//W3C//DTD SVG 1.1//EN" "http://www.w3.org/Graphics/SVG/1.1/DTD/svg11.dtd" >
<svg xmlns="http://www.w3.org/2000/svg">
<metadata>
This is a custom SVG webfont generated by Font Squirrel.
</metadata>
<defs>
<font id="webfont730fxkSc" horiz-adv-x="0" >
<font-face units-per-em="2048" ascent="1638" descent="-410" />
<missing-glyph horiz-adv-x="650" />
<glyph unicode=" "  horiz-adv-x="650" />
<glyph unicode="&#x09;" horiz-adv-x="650" />
<glyph unicode="&#xa0;" horiz-adv-x="650" />
<glyph unicode="&#x22;" horiz-adv-x="676" d="M409 1230h177l-144 -445h-67zM124 1230h177l-144 -445h-67z" />
<glyph unicode="'" horiz-adv-x="391" d="M124 1230h177l-144 -445h-67z" />
<glyph unicode="." horiz-adv-x="398" d="M199 195q47 0 78 -32.5t31 -76.5q0 -43 -30.5 -76t-78.5 -33q-47 0 -78 32.5t-31 76.5t30.5 76.5t78.5 32.5z" />
<glyph unicode="0" horiz-adv-x="989" d="M500 1244q37 0 71 -6t74 -23t73.5 -45t66 -75.5t55 -110.5t36 -155t13.5 -203q0 -626 -396 -626q-87 0 -154.5 34t-110 91t-70.5 138.5t-39 170t-11 192.5t11 191.5t39 168t72 136.5t112.5 89t157.5 33zM493 71q67 0 113 40t71 117.5t35.5 173t10.5 224.5 q0 130 -10.5 224t-35.5 170t-71 114t-113 38q-65 0 -108.5 -34.5t-67.5 -107.5t-34 -169t-10 -235t10 -236t34 -172t67.5 -111t108.5 -36z" />
<glyph unicode="1" horiz-adv-x="783" d="M506 102l225 -52v-50h-649v50l270 52v968l-244 -88v48l352 200h46v-1128z" />
<glyph unicode="2" horiz-adv-x="971" d="M436 1221q98 0 172.5 -21t116 -53t67 -76.5t33.5 -83t8 -81.5q0 -77 -21.5 -145.5t-65.5 -130.5t-87 -107.5t-108 -104.5l-316 -279h621v-139h-739v133l304 277q136 130 188.5 236t52.5 260q0 70 -17.5 118.5t-49.5 74t-70.5 36.5t-88.5 11q-102 0 -188 -48l-31 -148h-59 v232q160 39 278 39z" />
<glyph unicode="3" horiz-adv-x="992" d="M578 632q153 -18 236 -89.5t83 -214.5q0 -89 -33 -157t-92.5 -108.5t-135.5 -60.5t-167 -20q-166 0 -324 38l-10 254h60l40 -169q34 -19 98 -34t122 -15q154 0 215 71.5t61 209.5q0 125 -65 184t-190 65l-128 7v74l128 8q104 5 151.5 64t47.5 173q0 121 -52 177t-168 56 q-105 0 -192 -48l-31 -148h-60v233q149 38 283 38q387 0 387 -297q0 -127 -70 -200t-194 -91z" />
<glyph unicode="4" horiz-adv-x="997" d="M753 266v-266h-155v266h-538v120l589 828h104v-819h163v-129h-163zM598 1002h-5l-432 -607h437v607z" />
<glyph unicode="5" horiz-adv-x="954" d="M251 683q99 22 208 22q220 0 316.5 -90.5t96.5 -256.5q0 -188 -114.5 -282t-313.5 -94q-183 0 -315 38v254h60l40 -170q38 -21 94 -34.5t107 -13.5q81 0 136 20t85 60.5t42.5 91t12.5 121.5q0 150 -61.5 215t-228.5 65q-80 0 -160 -22h-86v623h612v-139h-531v-408z" />
<glyph unicode="6" horiz-adv-x="983" d="M564 722q50 0 94.5 -9t88 -33.5t74.5 -62.5t50 -100t19 -143q0 -185 -93.5 -288.5t-275.5 -103.5q-39 0 -76 6t-80 24t-79 46t-70.5 76t-59 110.5t-39 152.5t-14.5 199q0 120 20.5 219t56.5 165t80.5 114.5t97 75t101 38.5t96.5 12q130 0 261 -31v-208h-59l-33 123 q-28 15 -76.5 28t-92.5 13q-39 0 -74.5 -11t-75.5 -44t-69 -86t-48 -145.5t-19 -213.5q145 77 295 77zM268 591q0 -287 65 -412.5t185 -125.5q60 0 101.5 21t64 62.5t31.5 94t9 126.5q0 156 -49.5 217.5t-144.5 61.5q-122 0 -262 -45z" />
<glyph unicode="7" horiz-adv-x="929" d="M154 922h-64v308h748v-92l-535 -1138h-116l529 1069h-531z" />
<glyph unicode="8" horiz-adv-x="1001" d="M507 1226q162 0 257 -79t95 -234q0 -58 -16.5 -106t-45 -80t-56.5 -52.5t-60 -34.5q41 -15 76.5 -39t68 -60.5t51.5 -92t19 -122.5q0 -80 -21.5 -141t-57 -99t-87.5 -62t-107.5 -33t-122.5 -9q-386 0 -386 344q0 128 61.5 204t152.5 110q-31 14 -58.5 34t-56 52.5 t-45.5 80.5t-17 106q0 64 18.5 117.5t58 99t111 71t168.5 25.5zM500 53q132 0 183 70t51 203q0 139 -54 206.5t-180 67.5q-125 0 -174.5 -65.5t-49.5 -208.5q0 -140 48 -206.5t176 -66.5zM501 679q106 0 151 58.5t45 175.5q0 116 -45.5 178.5t-150.5 62.5q-103 0 -145.5 -62 t-42.5 -179q0 -119 42.5 -176.5t145.5 -57.5z" />
<glyph unicode="9" horiz-adv-x="1000" d="M458 479q-65 0 -122.5 18.5t-108.5 58t-81 112t-30 171.5q0 184 103.5 282.5t284.5 98.5q75 0 133.5 -18t109.5 -61.5t84 -113t52 -175.5t19 -246q0 -109 -16.5 -200t-43.5 -154.5t-66 -112t-80 -78t-89 -48t-89.5 -25t-85.5 -6.5q-146 0 -269 30v209h59l31 -129 q77 -36 176 -36q42 0 79.5 10t81 42.5t74.5 85t51.5 145.5t20.5 216q-137 -76 -278 -76zM736 614q0 123 -11 216t-30 153t-48.5 97.5t-63 52.5t-77.5 15q-225 0 -225 -313q0 -146 57.5 -207.5t164.5 -61.5q114 0 233 48z" />
<glyph unicode="&#x3c;" horiz-adv-x="1031" d="M941 876v-125l-605 -231l605 -238v-124l-851 344v37z" />
<glyph unicode="&#x3e;" horiz-adv-x="1031" d="M90 876l851 -337v-37l-851 -344v124l605 238l-605 231v125z" />
<glyph unicode="M" horiz-adv-x="1700" d="M800 0h-32l-442 1038v-966l162 -24v-48h-411v48l155 24v1064l-155 23v48h366l392 -918l428 918h346v-48l-155 -23v-1064l155 -24v-48h-490v48l162 24v966z" />
<glyph unicode="T" horiz-adv-x="1239" d="M330 0v48l192 24v1058h-46q-225 0 -311 -18l-25 -189h-60v284h1062v-284h-61l-25 189q-90 18 -316 18h-44v-1058l191 -24v-48h-557z" />
<glyph unicode="^" horiz-adv-x="975" d="M545 1065l340 -637h-137l-261 500l-261 -500h-136l340 637h115z" />
<glyph unicode="f" horiz-adv-x="822" d="M543 1362q-66 0 -89.5 -60t-25.5 -206l-3 -151h250l3 -89h-250v-778l203 -33v-45h-508v45l139 33v778h-162v41l162 47v66q0 104 21 184t53 125.5t75.5 74.5t83 38.5t81.5 9.5q71 0 143 -21v-203h-49l-45 123q-33 21 -82 21z" />
<glyph unicode="i" horiz-adv-x="634" d="M318 1356q47 0 78 -33t31 -76q0 -46 -33 -77t-76 -31t-75.5 31.5t-32.5 76.5q0 46 32.5 77.5t75.5 31.5zM417 70l161 -25v-45h-487v45l160 25v800l-133 25v45h299v-870z" />
<glyph unicode="l" horiz-adv-x="600" d="M382 70l161 -25v-45h-487v45l160 25v1282l-160 24v45h326v-1351z" />
<glyph unicode="s" horiz-adv-x="854" d="M440 885q-89 0 -127.5 -43.5t-38.5 -104.5q0 -21 4.5 -37.5t18.5 -40t47.5 -45t84.5 -38.5l90 -31q44 -15 75.5 -29t65.5 -37.5t55 -51.5t35 -69.5t14 -93.5q0 -39 -6.5 -73.5t-29 -75t-59 -69t-102 -47.5t-153.5 -19q-81 0 -166.5 16.5t-122.5 30.5v231h47l49 -131 q76 -68 195 -68q194 0 194 166q0 123 -153 173l-90 30q-56 18 -93 36t-74.5 48.5t-56 76.5t-18.5 109q0 131 88 199t225 68q101 0 258 -31v-205h-47l-42 109q-54 47 -167 47z" />
<glyph unicode="t" horiz-adv-x="729" d="M623 35q-31 -20 -94 -37.5t-129 -17.5q-55 0 -94 18.5t-59.5 51t-29 68.5t-8.5 79v659h-123v45l123 39l103 213h63v-213h215v-84h-215v-641q0 -73 32.5 -102t74.5 -29q58 0 141 16v-65z" />
<glyph unicode="~" horiz-adv-x="1072" d="M982 762q-6 -52 -15 -91.5t-27 -82.5t-42.5 -71t-65 -46.5t-92.5 -18.5q-46 0 -93.5 22.5t-87.5 53.5l-78 64q-38 32 -77 54.5t-72 22.5q-57 0 -92.5 -34.5t-47 -80t-11.5 -102.5h-91q0 63 12.5 116.5t39.5 98t75.5 70t114.5 25.5q95 0 225 -109l64 -52q72 -57 119 -57 q66 0 99.5 50t50.5 168h92z" />
<glyph unicode="&#xa3;" horiz-adv-x="916" d="M280 112q31 0 159 1t245 2.5t121 1.5l-11 -117h-704l34 105q54 8 97.5 81t43.5 128q0 4 -5 65.5t-5 97.5h-142l27 97h98q-33 170 -33 266q0 106 90 174.5t233 68.5q131 0 298 -54v-237h-60l-27 114q-29 39 -79 64.5t-100 25.5h-10q-52 -3 -54 -5q-153 -32 -153 -180 q0 -24 3 -45q0 -6 -0.5 -60t-0.5 -83q0 -45 1 -49h303l-22 -97h-266q0 -103 -24 -213.5t-57 -151.5z" />
<glyph unicode="&#x2c6;" horiz-adv-x="975" d="M545 1065l340 -637h-137l-261 500l-261 -500h-136l340 637h115z" />
<glyph unicode="&#x2dc;" horiz-adv-x="650" d="M446 432q-6 -52 -15 -91.5t-27 -82.5t-42.5 -71t-65 -46.5t-92.5 -18.5q-46 0 -93.5 22.5t-87.5 53.5l-78 64q-38 32 -77 54.5t-72 22.5q-57 0 -92.5 -34.5t-47 -80t-11.5 -102.5h-91q0 63 12.5 116.5t39.5 98t75.5 70t114.5 25.5q95 0 225 -109l64 -52q72 -57 119 -57 q66 0 99.5 50t50.5 168h92z" />
<glyph unicode="&#x591;" />
<glyph unicode="&#x592;" />
<glyph unicode="&#x593;" />
<glyph unicode="&#x594;" />
<glyph unicode="&#x595;" />
<glyph unicode="&#x596;" />
<glyph unicode="&#x597;" />
<glyph unicode="&#x598;" />
<glyph unicode="&#x599;" />
<glyph unicode="&#x59a;" />
<glyph unicode="&#x59b;" />
<glyph unicode="&#x59c;" />
<glyph unicode="&#x59d;" />
<glyph unicode="&#x59e;" />
<glyph unicode="&#x59f;" />
<glyph unicode="&#x5a0;" />
<glyph unicode="&#x5a1;" />
<glyph unicode="&#x5a2;" />
<glyph unicode="&#x5a3;" />
<glyph unicode="&#x5a4;" />
<glyph unicode="&#x5a5;" />
<glyph unicode="&#x5a6;" />
<glyph unicode="&#x5a7;" />
<glyph unicode="&#x5a8;" />
<glyph unicode="&#x5a9;" />
<glyph unicode="&#x5aa;" />
<glyph unicode="&#x5ab;" />
<glyph unicode="&#x5ac;" />
<glyph unicode="&#x5ad;" />
<glyph unicode="&#x5ae;" />
<glyph unicode="&#x5af;" />
<glyph unicode="&#x5b0;" d="M-25 -166q13 13 26 13l24 -12l52 -52q12 -13 12 -26q0 -12 -11 -23l-54 -54q-23 -23 -49 1l-52 52q-12 13 -12 26q0 12 11 23zM-25 -405q13 12 26 12q12 0 23 -11l53 -53q13 -12 13 -24t-13 -24l-53 -54q-12 -12 -24 -11.5t-24 11.5l-53 53q-13 12 -13 24t13 24z" />
<glyph unicode="&#x5b1;" d="M198 -166q13 13 26 13q12 0 24 -12l52 -52q12 -12 12 -24t-12 -24l-54 -54q-23 -23 -48 0l-52 52q-24 26 -1 49zM198 -406q26 26 49 2l53 -53q12 -13 12 -26q0 -12 -11 -23l-54 -54q-11 -11 -23 -11q-13 0 -26 12l-53 53q-24 24 0 48zM-248 -165q12 12 25 12q12 0 24 -11 l53 -53q23 -25 -1 -49l-52 -53q-25 -23 -49 0l-53 53q-11 12 -11 24.5t11 24.5zM-9 -164q13 12 25 12t24 -12l53 -53q11 -12 11 -24.5t-11 -24.5l-53 -52q-24 -24 -49 -1l-53 53q-23 25 1 49zM-126 -406q13 13 25 13t24 -12l53 -53q13 -12 13 -24t-13 -24l-53 -54 q-13 -12 -25 -12t-23 12l-53 53q-13 12 -13 24t13 24z" />
<glyph unicode="&#x5b2;" d="M-302 -287q-10 0 -10 8q0 2 1 5l21 81q5 15 17 15h310q16 0 11 -15l-21 -81q-4 -13 -19 -13h-310zM197 -166q13 13 25 13l25 -12l53 -52q12 -13 12 -26q0 -12 -11 -23l-54 -54q-24 -24 -49 1l-52 52q-13 13 -13 25t12 24zM198 -405q13 12 26 12q12 0 23 -11l53 -53 q12 -12 12 -24t-12 -24l-54 -54q-12 -12 -24 -11.5t-24 11.5l-53 53q-12 12 -12 24t12 24z" />
<glyph unicode="&#x5b3;" d="M-88 -294l9 -186q0 -10 -10 -10h-86q-9 0 -9 10l10 186h-129q-10 0 -10 8q0 2 1 5l21 81q5 15 17 15h310q16 0 11 -15l-21 -81q-4 -13 -19 -13h-95zM198 -166q13 13 26 13q12 0 24 -12l52 -52q13 -13 13 -25t-12 -24l-54 -54q-24 -24 -49 2l-52 51q-12 13 -12 26 q0 12 11 23zM198 -405q13 12 26 12q12 0 24 -11l53 -53q12 -12 12 -24t-12 -24l-54 -54q-12 -12 -24 -12l-24 12l-53 53q-12 12 -12 24t12 24z" />
<glyph unicode="&#x5b4;" d="M-25 -166q13 13 26 13l24 -12l53 -53q11 -12 11.5 -24t-11.5 -24l-54 -54q-12 -11 -24 -11.5t-24 11.5l-53 53q-12 13 -12 25t11 24z" />
<glyph unicode="&#x5b5;" d="M-144 -165q12 12 25 12q12 0 24 -11l53 -53q23 -25 -1 -49l-52 -53q-13 -11 -25 -11t-24 11l-53 53q-12 12 -11.5 24.5t11.5 24.5zM95 -164q13 12 25 12t24 -12l53 -53q12 -12 11.5 -24.5t-11.5 -24.5l-53 -52q-12 -12 -25 -12q-12 0 -24 11l-53 53q-11 12 -11 24 q0 13 12 25z" />
<glyph unicode="&#x5b6;" d="M-144 -165q12 12 25 12q12 0 24 -11l53 -53q23 -25 -1 -49l-52 -53q-25 -23 -49 0l-53 53q-12 12 -11.5 24.5t11.5 24.5zM95 -164q13 12 25 12t24 -12l53 -53q12 -12 11.5 -24.5t-11.5 -24.5l-53 -52q-24 -24 -49 -1l-53 53q-23 25 1 49zM-22 -406q13 13 25 13t24 -12 l53 -53q13 -12 13 -24t-13 -24l-53 -54q-12 -12 -24.5 -12t-23.5 12l-53 53q-13 12 -13 24t13 24z" />
<glyph unicode="&#x5b7;" d="M-171 -279q-10 0 -10 8q0 2 1 5l21 81q5 15 17 15h310q12 0 12 -9q0 -2 -1 -6l-21 -81q-4 -13 -19 -13h-310z" />
<glyph unicode="&#x5b8;" d="M44 -279l9 -186q0 -10 -10 -10h-86q-9 0 -9 10l10 186h-129q-10 0 -10 8q0 2 1 5l21 81q5 15 17 15h310q12 0 12 -9q0 -2 -1 -6l-21 -81q-4 -13 -19 -13h-95z" />
<glyph unicode="&#x5b9;" d="M-25 1395q13 13 26 13q11 0 23 -11l54 -54q11 -11 11.5 -23t-11.5 -25l-54 -54q-12 -11 -24 -11t-24 11l-54 54q-11 12 -11 24t11 24z" />
<glyph unicode="&#x5ba;" d="M-25 1445q13 13 26 13q11 0 23 -11l54 -54q11 -11 11.5 -23t-11.5 -25l-54 -54q-12 -11 -24 -11t-24 11l-54 54q-11 12 -11 24t11 24z" />
<glyph unicode="&#x5bb;" d="M-166 -165q12 12 23 12t22 -10l47 -48q22 -22 0 -44l-48 -48q-22 -22 -44 0l-47 48q-11 11 -11 22q0 10 10 21zM-25 -294q12 12 23 12t22 -11l47 -47q23 -23 0 -44l-48 -49q-22 -21 -44 1l-47 47q-11 11 -11 23q0 10 10 21zM118 -429q12 12 23 12t22 -11l47 -47 q12 -11 12 -22.5t-12 -21.5l-48 -49q-11 -10 -21 -10l-23 11l-47 47q-11 11 -11 22t10 21z" />
<glyph unicode="&#x5bc;" d="M-22 592q10 11 21 11t23 -11l47 -47q11 -11 11 -22t-11 -22l-47 -47q-11 -10 -21 -10l-23 11l-47 48q-11 11 -11 21t11 21z" />
<glyph unicode="&#x5bd;" d="M-55 -232q0 4 14 12l82 50q3 1 5 1q3 0 5 -2q4 -4 4 -11l-1 -297q-1 -6 -15 -14l-80 -47q-3 -2 -5 -2q-3 0 -5 4q-4 5 -4 12v294z" />
<glyph unicode="&#x5be;" horiz-adv-x="661" d="M75 818q-15 0 -15 10q0 4 2 9l31 121q8 23 26 23h465q18 0 18 -13q0 -4 -2 -10l-31 -121q-7 -19 -29 -19h-465z" />
<glyph unicode="&#x5bf;" d="M-170 1193q-10 0 -10 8q0 2 1 6l21 80q5 15 17 15h310q12 0 12 -9q0 -2 -1 -6l-21 -80q-5 -14 -19 -14h-310z" />
<glyph unicode="&#x5c0;" horiz-adv-x="160" />
<glyph unicode="&#x5c1;" d="M-25 1332q13 13 26 13l24 -12l53 -53q11 -11 11.5 -23.5t-11.5 -24.5l-54 -54q-12 -11 -24 -11.5t-24 11.5l-53 53q-12 13 -12 25t11 24z" />
<glyph unicode="&#x5c2;" d="M-25 1332q13 13 26 13l24 -12l53 -53q11 -11 11.5 -23.5t-11.5 -24.5l-54 -54q-12 -11 -24 -11.5t-24 11.5l-53 53q-12 13 -12 25t11 24z" />
<glyph unicode="&#x5c3;" horiz-adv-x="471" d="M196 297q18 19 37 19t37 -18l80 -79q18 -18 18 -36t-18 -36l-81 -81q-18 -18 -36 -18t-36 18l-79 80q-18 18 -18 37q0 17 16 36l40 41zM198 992q18 19 38 19t38 -18l79 -79q18 -18 18 -36t-18 -36l-81 -82q-18 -18 -36 -18t-36 18l-80 80q-20 20 -20 38q0 15 19 36l41 40 z" />
<glyph unicode="&#x5c4;" />
<glyph unicode="&#x5c5;" />
<glyph unicode="&#x5c6;" horiz-adv-x="655" d="M198 824q0 36 -47 36h-9q-15 0 -26.5 9t-11.5 22q0 3 2 11l64 230q5 16 19.5 28t26.5 12q6 0 12 -4.5t6 -14.5q0 -29 10 -60t25 -44h230q21 0 28 -7.5t1 -28.5l-33 -121q-9 -23 -16 -27.5t-30 -4.5h-53q-23 0 -41 -60t-27.5 -152t-14 -184t-4.5 -174v-25q0 -30 6 -42.5 t28.5 -18.5t75.5 -6h156q32 0 32 -20q0 -7 -3 -16l-35 -130q-9 -23 -16 -27.5t-30 -4.5h-270q-53 0 -71 14.5t-18 72.5q0 55 6 113q28 187 28 580v44z" />
<glyph unicode="&#x5c7;" d="M45 -279l9 -250q0 -10 -10 -10h-86q-9 0 -9 10l10 250h-112q-10 0 -10 8q0 2 1 5l21 81q5 15 17 15h275q12 0 12 -9q0 -2 -1 -6l-21 -81q-4 -13 -19 -13h-77z" />
<glyph unicode="&#x5d0;" horiz-adv-x="1236" d="M419 648q-17 0 -36.5 -51t-19.5 -104q0 -83 11 -146.5t24 -91.5l23 -51q11 -23 11 -35q0 -5 -2 -13l-41 -122q-7 -23 -15 -28.5t-31 -5.5h-273q-20 0 -22 3q-1 1 -1 3q0 5 5 18l30 86q9 27 14.5 32t35.5 14l137 42q-3 17 -25.5 96t-22.5 142q0 59 17 112.5t38 83.5l38 54 q17 25 17 33q0 15 -25 39l-85 86q-11 11 -11 17t8 27l63 168q9 27 13 27q5 0 21 -20l384 -473q28 -37 43 -37q18 0 48 47t53 110t23 102q0 15 -16 27.5t-13 20.5l62 156q10 24 15.5 28.5t26.5 4.5h160q21 0 27.5 -7.5t0.5 -28.5l-36 -121q-5 -16 -11 -23t-12 -8t-23 -1 q-46 0 -74.5 -28.5t-28.5 -63.5q0 -66 -21 -139t-42.5 -122t-21.5 -59q0 -20 27 -47q38 -41 66 -67t44 -38l52 -36l68 -49q17 -13 17 -23q0 -9 -8 -23l-74 -149q-6 -10 -8.5 -13t-7 -1.5t-13.5 10.5q-222 209 -321.5 313.5t-251.5 296.5q-20 26 -30 26z" />
<glyph unicode="&#x5d1;" horiz-adv-x="976" d="M837 0h-744q-22 0 -29 6q-4 3 -4 9t4 16l49 134q10 24 15.5 28.5t26.5 4.5h517q33 0 44 5t11 20v20q-8 57 -16.5 130t-13.5 120.5t-14 104t-19 91.5t-28 71t-42 55.5t-60 32t-83 12.5h-264q-20 0 -32 12t-6 30l64 230q6 17 21.5 28t29.5 11q13 0 13 -9q0 -30 10.5 -65 t24.5 -48h194q76 0 127 -13.5t86 -61.5t53 -93.5t27.5 -157.5t11 -201.5t1.5 -274.5v-7q0 -28 4.5 -35t24.5 -7h54q21 0 28 -8q4 -4 4 -11t-3 -17l-41 -130q-9 -23 -16 -27.5t-30 -4.5z" />
<glyph unicode="&#x5d2;" horiz-adv-x="790" d="M335 1049h49q16 0 40.5 -1.5t34.5 -3.5t26 -7t21 -11l16 -18q9 -11 11 -24t6 -32t4.5 -41t0.5 -51q0 -139 13 -248.5t31 -173.5t46 -112.5t48 -68.5t47 -39q21 -14 25 -24q2 -3 2 -7q0 -8 -6 -19q-20 -18 -35 -35t-24 -28.5t-17.5 -28.5t-11.5 -23.5t-9.5 -25.5t-8.5 -23 q-11 -18 -22 -19h-2q-9 0 -15 6q-7 7 -20 25q-87 120 -114 363l-17 -27l-47 -99l-37 -81q-11 -24 -29.5 -58.5t-26 -46t-25 -29.5t-28 -21.5t-33 -9.5t-43 -6.5t-54.5 -0.5h-43q-22 0 -28 6q-4 2 -4 8t4 16l53 136q14 34 53 34q49 0 89 17t67.5 42t52 68.5t40 82t35.5 97.5 q-3 29 -7 73l-6 65q-2 21 -6 53t-8 47t-10.5 36.5t-14.5 30.5l-21 21q-12 12 -28 16t-35.5 7.5t-45.5 3.5h-86q-20 0 -31.5 12t-6.5 30l64 230q6 17 21.5 28t29.5 11q13 0 13 -9q0 -6 4.5 -30t4.5 -34q0 -22 15.5 -35.5t38.5 -13.5z" />
<glyph unicode="&#x5d3;" horiz-adv-x="963" d="M128 860q-20 0 -32 12q-8 8 -8 19q0 5 2 11l64 230q6 17 21.5 28t29.5 11q13 0 13 -9q0 -30 10.5 -65t24.5 -48h599q21 0 28 -7q4 -5 4 -13q0 -7 -3 -17l-26 -91q-9 -30 -20.5 -43t-23 -14.5t-23.5 -5t-24 -23.5t-21 -61q-12 -71 -12 -144q0 -77 22 -213.5t22 -216.5 q0 -50 -21.5 -93t-59.5 -93q-10 -14 -15 -17t-20 -7l-30 -8q-9 -2 -14 -2t-7 2q-3 3 -3 18q0 70 1.5 287.5t1.5 497.5q0 39 -18.5 57t-69.5 18h-392z" />
<glyph unicode="&#x5d4;" horiz-adv-x="1155" d="M171 860q-20 0 -31.5 12t-6.5 30l64 230q6 17 21.5 28t29.5 11q13 0 13 -9q0 -30 10.5 -65t24.5 -48h735q20 0 27 -7q4 -5 4 -15q0 -7 -2 -15l-17 -91q-6 -27 -14 -40.5t-15.5 -17.5t-15.5 -9.5t-16 -24.5t-14 -55q-12 -64 -12 -144q0 -77 22 -213.5t22 -216.5 q0 -50 -21.5 -93t-59.5 -93q-10 -13 -14.5 -16t-20.5 -8l-30 -8q-9 -2 -14 -2t-6 2q-4 3 -4 18q0 70 1.5 287.5t1.5 497.5q0 39 -18.5 57t-69.5 18h-574zM252 648q11 5 18 5q4 0 6 -2q7 -5 7 -31v-98q0 -28 12.5 -122t12.5 -153q0 -176 -118 -247q-30 -18 -49 -18 q-26 0 -26 35q0 10 3 25q21 115 31.5 216.5t11.5 155.5t2.5 98.5t8 66t24.5 38t56 31.5z" />
<glyph unicode="&#x5d5;" horiz-adv-x="597" d="M477 801q0 -31 -0.5 -92t-0.5 -81q0 -77 18 -212.5t18 -215.5q0 -50 -21.5 -93t-59.5 -93q-10 -13 -14.5 -16t-20.5 -8l-30 -8q-9 -2 -14 -2t-6 2q-4 3 -4 18v785q0 36 -17.5 51t-67.5 24q-144 24 -146 24q-16 3 -25 18q-6 10 -6 22q0 5 1 10l51 198q5 17 21 28t30 11 q13 0 13 -9q0 -29 9.5 -59t24.5 -43q67 -14 113 -30.5t72.5 -33t40 -41t17.5 -46.5t4 -57v-51z" />
<glyph unicode="&#x5d6;" horiz-adv-x="637" d="M241 569q0 55 5 102.5t10.5 75.5t5.5 36q0 22 -8.5 36.5t-26.5 23.5t-34.5 14t-43 11t-42.5 12q-21 7 -21 30q0 8 3 18l50 204q4 17 20.5 28t30.5 11q13 0 13 -9q0 -30 10.5 -65t24.5 -48l280 -53q22 -7 27 -21q2 -6 2 -13q0 -10 -4 -22l-20 -78q-23 -60 -54 -60h-4 l-28 6q-3 1 -9 1q-17 0 -29 -15t-18 -31q-13 -43 -13 -99q0 -43 3 -68q3 -28 29 -168t26 -228q0 -50 -21.5 -93t-59.5 -93q-10 -13 -14.5 -16t-20.5 -8l-30 -8q-9 -2 -14 -2t-6 2q-4 3 -4 18q0 37 5.5 96.5t5.5 83.5q0 82 -13 205t-13 184z" />
<glyph unicode="&#x5d7;" horiz-adv-x="1228" d="M331 621q0 -98 5 -214.5t5 -144.5q0 -75 -26 -127t-93 -125q-17 -18 -37 -23l-30 -5q-6 -1 -10 -1q-8 0 -9 3q-3 4 -3 20q0 94 43 360.5t43 424.5q0 34 -13.5 52.5t-29.5 18.5h-17q-20 0 -31 12q-9 8 -9 20q0 5 2 10l64 230q6 17 21.5 28t29.5 11q13 0 13 -9 q0 -30 10.5 -65t24.5 -48h820q20 0 26 -7q5 -5 5 -15q0 -7 -2 -15l-17 -91q-6 -27 -14 -40.5t-15.5 -17.5t-15.5 -9.5t-16 -24.5t-14 -55q-12 -64 -12 -144q0 -77 22 -213.5t22 -216.5q0 -50 -21.5 -93t-59.5 -93q-16 -21 -52 -32h-13q-9 -2 -14 -2t-7 2q-3 3 -3 18 q0 70 1.5 287.5t1.5 497.5q0 39 -18.5 57t-69.5 18h-368q-35 0 -60 -23.5t-37 -62.5t-17 -76t-5 -77z" />
<glyph unicode="&#x5d8;" horiz-adv-x="1107" d="M296 74q-51 104 -79.5 204.5t-28.5 237.5q0 143 35 314q0 7 -16.5 23.5t-31.5 20.5l-51 11q-29 5 -36 14q-4 5 -4 14q0 6 2 14l86 194q8 18 24.5 34t28.5 16q13 0 13 -14q0 -59 35 -91l170 -49q2 -1 7.5 -2t7 -1.5t5 -2t4.5 -2.5l3 -3q2 -2 2.5 -4t1 -5t0 -7t-1.5 -9 l-20 -118q-5 -27 -14 -34t-42 -7q-69 0 -73 -20q0 -230 32.5 -373t120.5 -243q106 0 182 16t175 58q68 73 68 340q0 86 -6 122q-7 59 -42 98.5t-93 39.5q-13 0 -25 -2.5t-24 -9.5t-20.5 -11.5t-20 -17.5t-17 -18t-18 -22t-15 -21t-15.5 -23t-14 -21q-31 -18 -40 14 q10 42 17 68.5t20.5 67.5t26 67.5t33 57.5t42.5 49t53 30t66 12q44 0 79 -17.5t58 -43.5t39.5 -70.5t24.5 -83.5t12.5 -97.5t5.5 -97.5t1 -98q0 -85 -16 -181t-56 -189.5t-96 -127.5q-12 -7 -18.5 -10.5t-18.5 -8.5t-18.5 -7.5t-25.5 -7t-32 -6.5l-48 -9l-61 -11l-83 -14 l-105 -18q-39 -7 -64 -7q-27 0 -43.5 19t-47.5 80z" />
<glyph unicode="&#x5d9;" horiz-adv-x="666" d="M264 1178q0 -1 -1 -6t-2 -14.5t-1 -20.5q0 -55 18 -78l145 -26q136 -23 136 -153q0 -69 -37.5 -188t-76.5 -186q-49 -77 -118 -103q-9 -3 -18 -3q-16 0 -28 7t-12 16q0 3 1 5q129 228 129 325q0 91 -112 112l-164 30q-15 2 -25 11.5t-10 21.5q0 8 4 15l103 216 q16 29 51 29q18 0 18 -10z" />
<glyph unicode="&#x5da;" horiz-adv-x="986" d="M723 627q0 42 -1 67t-6.5 52t-14 41.5t-26 29.5t-40.5 21.5t-59 12.5t-79.5 7.5t-105.5 1.5h-263q-20 0 -32 12q-8 8 -8 19q0 5 2 11l64 230q6 17 21.5 28t29.5 11q13 0 13 -9q0 -30 10.5 -65t24.5 -48h360q256 0 256 -232q0 -35 -10.5 -175t-10.5 -167q0 -169 27 -390 t27 -309q0 -50 -21.5 -93t-59.5 -93q-12 -15 -44 -26l-30 -11q-8 -2 -13 -2t-7 2q-4 4 -4 19v1055z" />
<glyph unicode="&#x5db;" horiz-adv-x="976" d="M115 165q11 24 16.5 28.5t25.5 4.5h516q75 0 99 26t24 96v87q0 50 -2 88t-9.5 88t-21 86t-38.5 74.5t-59 62t-86 39t-117 15.5h-275q-20 0 -32 12t-6 30l64 230q6 17 21.5 28t29.5 11q13 0 13 -9q0 -30 10.5 -65t24.5 -48h318q48 0 86.5 -20.5t64.5 -52.5t47 -85.5 t33 -104t22.5 -125t15.5 -132t13 -140.5t15 -136q0 -84 -67.5 -168.5t-133.5 -84.5h-634q-22 0 -29 6q-4 3 -4 9t4 16z" />
<glyph unicode="&#x5dc;" horiz-adv-x="1012" d="M258 1421q-38 -63 -38 -186q0 -63 21 -135q17 -51 66 -51h454q154 -26 154 -186q0 -123 -92.5 -293t-246.5 -326t-315 -233q-40 -17 -50 -17q-2 0 -2.5 0.5t-0.5 3.5q0 11 18 60l63 140q9 25 21.5 40t42.5 30q185 98 290.5 234.5t105.5 243.5q0 53 -28.5 83.5t-83.5 30.5 h-456q-54 0 -68 18t-14 62q0 68 4 130t16 135.5t19.5 113.5t27.5 136l27 131q8 37 16 44.5t42 7.5h128q30 0 33.5 -10t-5.5 -34l-33 -116q-7 -23 -16.5 -30t-32.5 -7q-37 0 -47.5 -3t-19.5 -17z" />
<glyph unicode="&#x5dd;" horiz-adv-x="1181" d="M799 1049q50 0 89.5 -9t66 -23t45.5 -38t29 -47t16 -57.5t7.5 -62.5t1.5 -68v-604q0 -21 1.5 -49t1.5 -36q0 -35 -20 -45t-93 -10h-707q-25 0 -37 6.5t-14 15t-2 27.5q0 41 -3.5 121.5t-3.5 119.5q0 373 60 543l-95 27q-39 12 -39 33q0 5 1 9l64 230q6 17 21.5 28 t29.5 11q13 0 13 -9q0 -30 10.5 -65t24.5 -48h532zM305 500q0 -204 10.5 -253t58.5 -49h499q59 0 73.5 18.5t14.5 74.5v23q0 36 -3 82t-8 88.5t-9.5 76.5t-8.5 61l-4 28q-8 58 -22 94.5t-34.5 60.5t-60.5 35.5t-85.5 15.5t-122.5 4h-239q-30 0 -40 -13.5t-10 -45.5 q0 -51 -4.5 -151t-4.5 -150z" />
<glyph unicode="&#x5de;" horiz-adv-x="1237" d="M161 20q0 28 41 149.5t82 274.5t41 258q0 79 -46 101l-148 57q-16 6 -23 9.5t-13 12.5q-4 5 -4 11q0 4 2 9l64 230q5 16 18.5 28t24.5 12q13 0 21 -10q10 -15 17.5 -59.5t17.5 -53.5q27 -18 81 -34.5t84 -36.5t30 -60q0 -16 -2.5 -32.5t-8.5 -47t-11 -66.5 q0 -15 14.5 -19.5t24.5 6.5q123 106 190 206q16 19 24 37.5t8 25.5t12 13t34 7t75 1q58 0 94.5 -3.5t73 -16.5t57.5 -36t41 -63.5t32.5 -98t23.5 -140.5l13 -100l16 -112q5 -43 10 -110.5t5 -131.5q0 -38 -9 -75.5t-28.5 -75.5t-59.5 -62t-94 -24h-433q-22 0 -29.5 6t0.5 25 l53 134q10 24 15.5 28.5t26.5 4.5h330q64 0 86 13t22 57q0 6 -2 22.5t-2 27.5l-32 249q-28 156 -72 218t-146 62q-40 0 -85 -7q-62 -20 -99 -51q-44 -30 -78 -64t-59 -79t-41.5 -83.5t-32.5 -102.5t-25.5 -110t-25.5 -131.5t-28 -142.5q-10 -46 -24.5 -61t-58.5 -15h-49 q-20 0 -28 3.5t-8 16.5z" />
<glyph unicode="&#x5df;" horiz-adv-x="615" d="M476 899q0 -26 -5.5 -39.5t-11.5 -22t-11.5 -57t-5.5 -136.5v-15q0 -169 27 -390t27 -309q0 -81 -11 -162q-4 -26 -12 -50.5t-15 -40.5t-19.5 -34t-18.5 -25.5t-19.5 -22t-14.5 -16.5q-29 -28 -39 -28q-2 0 -3 1q-9 4 -9 61q0 235 -8 586.5t-8 590.5q0 45 -29 57.5 t-100 12.5h-70q-20 0 -32 12q-8 8 -8 19q0 5 2 11l64 230q5 16 19 28.5t25 12.5q17 0 20 -11q15 -95 35 -113h183q48 0 48 -64v-86z" />
<glyph unicode="&#x5e0;" horiz-adv-x="729" d="M624 76q0 -44 -26.5 -60t-106.5 -16h-404q-33 0 -33 16q0 7 4 15l49 134q10 24 15.5 28.5t26.5 4.5h298q26 0 35 12t9 37q0 80 -4 175t-13.5 198.5t-27.5 171.5t-43 68h-191q-16 0 -28 9t-12 23q0 2 2 10l64 230q6 18 19.5 28.5t26.5 10.5q18 0 18 -18q0 -29 10 -60 t25 -44h167q51 0 68 -46t17 -143v-77q0 -49 3.5 -138t3.5 -140q0 -59 14 -244z" />
<glyph unicode="&#x5e1;" horiz-adv-x="1082" d="M100 884l67 248q5 17 20.5 28.5t28.5 11.5q18 0 18 -19q0 -29 10 -60t25 -44h520q63 0 124 -55t70 -134q22 -113 22 -236q0 -77 -4.5 -142t-18 -134t-34.5 -123.5t-56.5 -104.5t-83 -82.5t-114.5 -52t-150 -19.5q-62 0 -112 14t-87 33.5t-65.5 61t-47.5 75.5t-31.5 99 t-19 109.5t-10 129t-4 135t-0.5 149.5q0 22 -0.5 32.5t-8.5 19.5t-11 10l-22 12q-26 10 -26 29q0 4 1 9zM877 500q0 56 -1.5 94.5t-6.5 77t-13.5 63t-22.5 47.5t-34 36.5t-48.5 23.5t-64.5 14t-83 4q-159 0 -264 -15q-39 -6 -53 -21.5t-14 -63.5q0 -107 8 -192.5 t21.5 -143.5t35.5 -100.5t44.5 -66t53.5 -37.5t58.5 -18t63.5 -4q68 0 134.5 23t115.5 58q44 42 57 82t13 95v44z" />
<glyph unicode="&#x5e2;" horiz-adv-x="1144" d="M377 1049q41 0 57.5 -10t16.5 -32q0 -11 -5 -29l-26 -118l-61 -16q0 -194 88.5 -343t187.5 -174q40 29 72.5 69.5t52 78t36.5 89t24 85.5l18 85q11 50 16 70q6 13 2.5 23.5t-25.5 15.5l-47 10l-12 3l-10 2q-2 0 -6 2.5t-4.5 5t0 7t3.5 11.5l33 131q10 24 16 29t26 5h137 q48 0 67 -7.5t19 -33.5q0 -17 -3 -28l-26 -120l-56 -20q-47 -259 -54 -289q-43 -189 -123 -291q-108 -138 -357 -223q-110 -38 -259 -70q-77 -17 -96 -17q-22 0 -22 18q0 17 20 66l23 64q24 55 44 68t94 25l253 40q-109 75 -177.5 248.5t-68.5 360.5l-92 20q-40 8 -40 32 q0 4 2 10l60 216q6 21 18.5 37t24.5 16q9 0 19.5 -5t11.5 -13q1 -5 3 -22.5t3.5 -26.5t4.5 -22t7.5 -21t10.5 -12h99z" />
<glyph unicode="&#x5e3;" horiz-adv-x="935" d="M250 684q0 -43 14 -56t41 -13q4 0 12.5 0.5t13.5 0.5q26 0 40.5 -14t20.5 -52l8 -49q2 -12 2 -30q0 -25 -11.5 -31t-43.5 -6h-145q-49 0 -63 27t-14 87q0 24 -4.5 76t-4.5 80q0 182 60 345l27 83q6 18 19.5 28.5t26.5 10.5q18 0 18 -18q0 -29 10 -60t25 -44h189 q84 0 146 -17.5t94.5 -46.5t47.5 -60t15 -65v-2q1 -2 2 -8l2 -16q2 -9 3.5 -26.5t2.5 -40t1.5 -57.5t0.5 -77v-15q0 -169 20.5 -388t20.5 -307q0 -90 -11 -162q-7 -50 -28.5 -93t-34 -57.5t-36.5 -38.5q-27 -29 -38 -29q-2 0 -3 1q-10 5 -10 62q0 228 -9 505t-9 552 q0 50 -7 80t-27 55t-60.5 37t-103 18.5t-159.5 6.5q-40 0 -53.5 -18.5t-13.5 -53.5l3 -34q3 -33 3 -70z" />
<glyph unicode="&#x5e4;" horiz-adv-x="975" d="M225 435q-33 0 -48.5 16.5t-23.5 70.5t-8 167q0 224 49 360l27 83q6 18 19.5 28.5t26.5 10.5q18 0 18 -18q0 -29 10 -60t25 -44h240q89 0 140.5 -12t89.5 -49.5t56 -101t29 -172.5l44 -426q0 -6 1 -17t1 -16q0 -102 -66.5 -178.5t-124.5 -76.5h-620q-33 0 -33 16 q0 3 4 15l41 134q10 24 15.5 28.5t26.5 4.5h406q130 0 176 17t46 65q0 24 -14 84q0 18 -34 175t-45 182q-22 53 -27 60q-32 50 -134 66q-76 13 -209 13q-40 0 -53.5 -18.5t-13.5 -53.5v-10q0 -22 10 -104q8 -57 57 -57h25q9 0 19 -1.5t14 -1.5t9.5 -3.5t6.5 -4.5t4 -8.5 t3 -10t2 -13.5l3 -18l6 -48q5 -30 5 -41q0 -21 -14 -26.5t-59 -5.5h-128z" />
<glyph unicode="&#x5e5;" horiz-adv-x="1149" d="M444 979l-41 -119q-18 -23 -18 -46q0 -8 6 -40l54 -326q120 96 197 174t134 178q-26 47 -26 65q0 10 7 31l41 120q10 24 15.5 28.5t26.5 4.5h136q49 0 70.5 -9t21.5 -31q0 -11 -2 -16l-44 -103q-15 -34 -25 -41.5t-53 -16.5q-34 -9 -48 -23t-41 -59q-39 -63 -80 -119.5 t-101 -124.5l-91 -100l-114 -120q0 -105 29.5 -282.5t29.5 -275.5q0 -42 -24 -82t-40 -45l-36 -11q-23 -6 -34 -6q-6 0 -8 2q-6 5 -6 34v11q0 402 -80 1112q-4 28 -12.5 46t-24.5 28.5t-31 15t-44 9.5l-68 18q-40 10 -40 32q0 5 2 10l64 230q6 18 19.5 28.5t26.5 10.5 q18 0 18 -18q0 -29 10 -60t25 -44h130q53 0 63 -13q8 -9 9 -29.5t-3 -27.5z" />
<glyph unicode="&#x5e6;" horiz-adv-x="1103" d="M99 0q-22 0 -29 6q-5 3 -5 10q0 6 3 14l48 135q8 23 14.5 28t27.5 5h462q101 0 101 26q0 9 -9.5 22t-30.5 34.5t-31 33.5q-217 258 -384 524l-98 33q-15 5 -22.5 9t-13.5 12.5t-2 20.5l64 230q6 18 19.5 28.5t26.5 10.5q18 0 18 -18q0 -27 14.5 -64t29.5 -51h130 q53 0 63 -13q8 -9 9 -29.5t-3 -27.5l-50 -108q-2 -3 -7 -9l-6 -8q-2 -2 -4.5 -6.5t-3 -7.5t0 -7t2.5 -8q76 -146 207 -315q40 68 57.5 129.5t17.5 143.5q-23 83 -23 93q0 12 7 30l34 102q15 41 59 41h136q49 0 70.5 -9t21.5 -31q0 -11 -2 -16l-44 -103q-15 -34 -25 -41.5 t-53 -16.5q-14 -4 -23.5 -9t-16 -17t-9 -17t-8 -26.5t-7.5 -27.5q-32 -109 -121 -312q43 -51 180 -179q35 -35 35 -66q0 -20 -13 -52l-19 -44q-19 -52 -45.5 -67t-86.5 -15h-663z" />
<glyph unicode="&#x5e7;" horiz-adv-x="1077" d="M157 860q-16 0 -27.5 8.5t-11.5 22.5q0 3 2 11l64 230q6 18 19.5 28.5t26.5 10.5q18 0 18 -18q0 -29 10 -60t25 -44h510q52 0 92 -20.5t60 -51.5t30 -61t10 -56q0 -281 -107 -504.5t-301 -365.5q-21 -13 -44 -13q-41 0 -41 44q0 11 5 33l28 111q8 37 22 50t56 33 q103 58 180 171t77 234q0 111 -48.5 159t-161.5 48h-493zM230 -410q-43 -15 -53 -15q-14 0 -17 12.5t-3 53.5v759q0 50 6 71t29 56l81 122q5 8 17 8q5 0 8.5 -2t2.5 -6q-18 -155 -18 -303q0 -106 12 -296.5t12 -291.5q0 -64 -23.5 -108t-53.5 -60z" />
<glyph unicode="&#x5e8;" horiz-adv-x="951" d="M850 110l-34 -76q-12 -28 -22 -39.5t-31 -21.5q-12 -5 -17 -5q-11 0 -11 46t-6.5 307.5t-6.5 302.5q0 59 -1.5 84.5t-11 60t-27.5 46t-54.5 25.5t-89 17t-133.5 3h-275q-16 0 -28 9t-12 23q0 2 2 10l64 230q6 18 19.5 28.5t26.5 10.5q18 0 18 -18q0 -29 10 -60t25 -44 h339q49 0 87 -9.5t63 -24.5t43 -41t27.5 -49.5t15.5 -59.5t8 -63l5 -68q3 -41 6 -67l26 -345q0 -8 2 -51t2 -49q0 -32 -6 -53t-23 -59z" />
<glyph unicode="&#x5e9;" horiz-adv-x="1422" d="M449 -18q-22 0 -34.5 1.5t-28.5 8t-26.5 22t-17.5 40.5q-20 74 -37 167t-24.5 142.5t-24.5 188.5l-22 172q-1 8 -3 26t-3 23t-4 16.5t-6 15.5l-10 11q-7 8 -16 13t-22 11l-47 20q-3 1 -7.5 3t-7 3.5t-6.5 3.5t-6.5 3.5t-5 3.5t-4 4.5t-2.5 5.5t-1 6t2 9l64 230 q5 16 19.5 28t26.5 12q6 0 12 -4.5t6 -14.5q0 -29 10 -60t25 -44h159q19 0 28.5 -0.5t18.5 -2.5t12 -6t3 -11q0 -12 -12 -42l-23 -61q-15 -37 -25 -51t-23 -18.5t-17 -6.5q-19 -13 -25.5 -25t-6.5 -32q0 -12 1 -19q3 -26 8.5 -87.5t8.5 -87t9.5 -74.5t14.5 -77.5t20.5 -67.5 t30 -71.5t40.5 -64.5q36 -45 47 -45q7 0 11 12t11 45l101 507q7 37 7 46q0 19 -25 30l-21 8l-12 4q-9 3 -11 5l-4 4q-4 4 -3 9t4 13l49 134q10 24 15.5 28.5t26.5 4.5h193q19 0 28.5 -0.5t18 -2.5t11.5 -6t3 -11q0 -12 -12 -42l-23 -60q-12 -29 -21.5 -45t-14.5 -19t-14 -6 t-15 -7q-10 -7 -18 -16t-13 -16.5t-9.5 -19.5t-6.5 -19t-5 -20t-4 -17l-130 -476q-8 -32 -8 -44t6 -16t22 -4q4 0 16.5 1t21.5 1q56 8 104.5 30t86 52t70 73t56 85.5t45 98t36 102.5t29.5 105q8 34 8 48q0 5 -0.5 9t-1.5 7t-3.5 6t-3.5 5t-5 4l-6 3q-2 1 -7.5 3t-7.5 2.5 t-9 2.5t-9 3l-21 7q-26 8 -29 14q-3 7 2 21l50 134q9 23 15 28t27 5h192q19 0 28.5 -0.5t18.5 -2.5t12 -6t3 -11q0 -12 -12 -42l-24 -60q-15 -38 -24 -52.5t-22.5 -18t-17.5 -6.5q-12 -8 -21.5 -21t-16 -30.5t-10 -29.5t-7.5 -31t-5 -23q-56 -220 -73 -271 q-68 -211 -186 -315q-170 -150 -504 -150z" />
<glyph unicode="&#x5ea;" horiz-adv-x="1189" d="M826 1049q47 0 83.5 -10t61 -24.5t42.5 -41t28 -49t17.5 -60t10 -63t6 -68.5t6.5 -66l33 -486q1 -4 1 -12q0 -43 -28.5 -98t-60.5 -89q-17 -17 -30 -17q-26 0 -26 105q0 43 -8 271.5t-8 282.5q0 58 -1.5 83t-10.5 59t-27.5 46.5t-55 26.5t-89.5 17.5t-133 3.5h-161 q-45 0 -72 -55.5t-27 -115.5l32 -440q0 -9 1 -25t1 -23q0 -13 -1 -25.5t-2 -20t-5 -19.5t-4.5 -15.5t-6 -17.5t-6.5 -16q-26 -62 -44.5 -74.5t-85.5 -12.5h-153q-55 0 -55 23q0 5 18 59q16 42 33 53.5t76 22.5q66 10 81.5 28t15.5 91v8l-5 360q0 15 2 30.5t4 26.5t8 26 t8.5 22.5t11 22.5t11.5 19l12 20q11 17 12 19l-64 29q-3 1 -10 4t-10 4.5t-8 4.5t-7 5.5t-4 6.5t-2 8q0 3 2 9l64 230q6 18 19.5 28.5t26.5 10.5q18 0 18 -18q0 -29 10 -60t25 -44h430z" />
<glyph unicode="&#x5f0;" horiz-adv-x="1054" d="M477 797q0 -31 -0.5 -92t-0.5 -81q0 -77 18 -212.5t18 -215.5q0 -50 -21.5 -93t-59.5 -93q-10 -13 -14.5 -16t-20.5 -8l-30 -8q-9 -2 -14 -2t-6 2q-4 3 -4 18v785q0 36 -17.5 51t-67.5 24q-144 24 -146 24q-16 3 -25 18q-6 10 -6 22q0 5 1 10l51 198q5 17 21 28t30 11 q13 0 13 -9q0 -29 9.5 -59t24.5 -43q67 -14 113 -30.5t72.5 -33t40 -41t17.5 -46.5t4 -57v-51zM934 801q0 -31 -0.5 -92t-0.5 -81q0 -77 18 -212.5t18 -215.5q0 -50 -21.5 -93t-59.5 -93q-10 -13 -14.5 -16t-20.5 -8l-30 -8q-9 -2 -14 -2t-6 2q-4 3 -4 18v785q0 36 -17.5 51 t-67.5 24q-144 24 -146 24q-16 3 -25 18q-6 10 -6 22q0 5 1 10l51 198q5 17 21 28t30 11q13 0 13 -9q0 -29 9.5 -59t24.5 -43q67 -14 113 -30.5t72.5 -33t40 -41t17.5 -46.5t4 -57v-51z" />
<glyph unicode="&#x5f1;" horiz-adv-x="1120" d="M1000 801q0 -31 -0.5 -92t-0.5 -81q0 -77 18 -212.5t18 -215.5q0 -50 -21.5 -93t-59.5 -93q-10 -13 -14.5 -16t-20.5 -8l-30 -8q-9 -2 -14 -2t-6 2q-4 3 -4 18v785q0 36 -17.5 51t-67.5 24q-144 24 -146 24q-16 3 -25 18q-6 10 -6 22q0 5 1 10l51 198q5 17 21 28t30 11 q13 0 13 -9q0 -29 9.5 -59t24.5 -43q67 -14 113 -30.5t72.5 -33t40 -41t17.5 -46.5t4 -57v-51zM264 1182q0 -1 -1 -6t-2 -14.5t-1 -20.5q0 -55 18 -78l145 -26q136 -23 136 -153q0 -69 -37.5 -188t-76.5 -186q-49 -77 -118 -103q-9 -3 -18 -3q-16 0 -28 7t-12 16q0 3 1 5 q129 228 129 325q0 91 -112 112l-164 30q-15 2 -25 11.5t-10 21.5q0 8 4 15l103 216q16 29 51 29q18 0 18 -10z" />
<glyph unicode="&#x5f2;" horiz-adv-x="1211" d="M264 1178q0 -1 -1 -6t-2 -14.5t-1 -20.5q0 -55 18 -78l145 -26q136 -23 136 -153q0 -69 -37.5 -188t-76.5 -186q-49 -77 -118 -103q-9 -3 -18 -3q-16 0 -28 7t-12 16q0 3 1 5q129 228 129 325q0 91 -112 112l-164 30q-15 2 -25 11.5t-10 21.5q0 8 4 15l103 216 q16 29 51 29q18 0 18 -10zM809 1179q0 -1 -1 -6t-2 -14.5t-1 -20.5q0 -55 18 -78l145 -26q136 -23 136 -153q0 -69 -37.5 -188t-76.5 -186q-49 -77 -118 -103q-9 -3 -18 -3q-16 0 -28 7t-12 16q0 3 1 5q129 228 129 325q0 91 -112 112l-164 30q-15 2 -25 11.5t-10 21.5 q0 8 4 15l103 216q16 29 51 29q18 0 18 -10z" />
<glyph unicode="&#x5f3;" horiz-adv-x="391" d="M124 1230h177l-144 -445h-67z" />
<glyph unicode="&#x5f4;" horiz-adv-x="676" d="M409 1230h177l-144 -445h-67zM124 1230h177l-144 -445h-67z" />
<glyph unicode="&#x2000;" horiz-adv-x="819" />
<glyph unicode="&#x2001;" horiz-adv-x="1638" />
<glyph unicode="&#x2002;" horiz-adv-x="819" />
<glyph unicode="&#x2003;" horiz-adv-x="1638" />
<glyph unicode="&#x2004;" horiz-adv-x="546" />
<glyph unicode="&#x2005;" horiz-adv-x="409" />
<glyph unicode="&#x2006;" horiz-adv-x="273" />
<glyph unicode="&#x2007;" horiz-adv-x="273" />
<glyph unicode="&#x2008;" horiz-adv-x="204" />
<glyph unicode="&#x2009;" horiz-adv-x="327" />
<glyph unicode="&#x200a;" horiz-adv-x="91" />
<glyph unicode="&#x2013;" horiz-adv-x="1024" d="M60 478v168h904v-168h-904z" />
<glyph unicode="&#x2014;" horiz-adv-x="2048" d="M60 478v168h1928v-168h-1928z" />
<glyph unicode="&#x2018;" horiz-adv-x="391" d="M124 1230h177l-144 -445h-67z" />
<glyph unicode="&#x2019;" horiz-adv-x="391" d="M124 1230h177l-144 -445h-67z" />
<glyph unicode="&#x201a;" horiz-adv-x="391" d="M124 284h177l-144 -445h-67z" />
<glyph unicode="&#x201c;" horiz-adv-x="676" d="M409 1230h177l-144 -445h-67zM124 1230h177l-144 -445h-67z" />
<glyph unicode="&#x201d;" horiz-adv-x="676" d="M409 1230h177l-144 -445h-67zM124 1230h177l-144 -445h-67z" />
<glyph unicode="&#x201e;" horiz-adv-x="676" d="M409 284h177l-144 -445h-67zM124 284h177l-144 -445h-67z" />
<glyph unicode="&#x2026;" horiz-adv-x="1194" d="M995 195q47 0 78 -32.5t31 -76.5q0 -43 -30.5 -76t-78.5 -33q-47 0 -78 32.5t-31 76.5t30.5 76.5t78.5 32.5zM597 195q47 0 78 -32.5t31 -76.5q0 -43 -30.5 -76t-78.5 -33q-47 0 -78 32.5t-31 76.5t30.5 76.5t78.5 32.5zM199 195q47 0 78 -32.5t31 -76.5q0 -43 -30.5 -76 t-78.5 -33q-47 0 -78 32.5t-31 76.5t30.5 76.5t78.5 32.5z" />
<glyph unicode="&#x202f;" horiz-adv-x="327" />
<glyph unicode="&#x2039;" horiz-adv-x="1031" d="M941 876v-125l-605 -231l605 -238v-124l-851 344v37z" />
<glyph unicode="&#x203a;" horiz-adv-x="1031" d="M90 876l851 -337v-37l-851 -344v124l605 238l-605 231v125z" />
<glyph unicode="&#x205f;" horiz-adv-x="409" />
<glyph unicode="&#x20ac;" horiz-adv-x="932" d="M556 0q-165 0 -261 107.5t-119 291.5h-86v63h80q-1 0 0 14v13v63v36h-80v61h86q11 98 40.5 172t66.5 117t86 70t93.5 36t94.5 9q116 0 256 -40l3 -193l-57 1l-15 102q-72 68 -171 68q-33 0 -59.5 -6t-58 -27.5t-54.5 -57.5t-41.5 -100t-25.5 -151h268v-61h-271 q-1 -12 -1 -35v-64q0 -18 1 -27h271v-63h-268q9 -101 33.5 -171.5t59 -105.5t69 -49t73.5 -14q52 0 103 19t84 58l19 122l64 3l-3 -210q-137 -51 -280 -51z" />
<glyph unicode="&#x2122;" horiz-adv-x="2939" d="M2039 0h-32l-442 1038v-966l162 -24v-48h-411v48l155 24v1064l-155 23v48h366l392 -918l428 918h346v-48l-155 -23v-1064l155 -24v-48h-490v48l162 24v966zM330 0v48l192 24v1058h-46q-225 0 -311 -18l-25 -189h-60v284h1062v-284h-61l-25 189q-90 18 -316 18h-44v-1058 l191 -24v-48h-557z" />
<glyph unicode="&#xfb00;" horiz-adv-x="1644" d="M1365 1362q-66 0 -89.5 -60t-25.5 -206l-3 -151h250l3 -89h-250v-778l203 -33v-45h-508v45l139 33v778h-162v41l162 47v66q0 104 21 184t53 125.5t75.5 74.5t83 38.5t81.5 9.5q71 0 143 -21v-203h-49l-45 123q-33 21 -82 21zM543 1362q-66 0 -89.5 -60t-25.5 -206 l-3 -151h250l3 -89h-250v-778l203 -33v-45h-508v45l139 33v778h-162v41l162 47v66q0 104 21 184t53 125.5t75.5 74.5t83 38.5t81.5 9.5q71 0 143 -21v-203h-49l-45 123q-33 21 -82 21z" />
<glyph unicode="&#xfb01;" horiz-adv-x="1456" d="M1140 1356q47 0 78 -33t31 -76q0 -46 -33 -77t-76 -31t-75.5 31.5t-32.5 76.5q0 46 32.5 77.5t75.5 31.5zM1239 70l161 -25v-45h-487v45l160 25v800l-133 25v45h299v-870zM543 1362q-66 0 -89.5 -60t-25.5 -206l-3 -151h250l3 -89h-250v-778l203 -33v-45h-508v45l139 33 v778h-162v41l162 47v66q0 104 21 184t53 125.5t75.5 74.5t83 38.5t81.5 9.5q71 0 143 -21v-203h-49l-45 123q-33 21 -82 21z" />
<glyph unicode="&#xfb02;" horiz-adv-x="1422" d="M1204 70l161 -25v-45h-487v45l160 25v1282l-160 24v45h326v-1351zM543 1362q-66 0 -89.5 -60t-25.5 -206l-3 -151h250l3 -89h-250v-778l203 -33v-45h-508v45l139 33v778h-162v41l162 47v66q0 104 21 184t53 125.5t75.5 74.5t83 38.5t81.5 9.5q71 0 143 -21v-203h-49 l-45 123q-33 21 -82 21z" />
<glyph unicode="&#xfb03;" horiz-adv-x="2278" d="M1962 1356q47 0 78 -33t31 -76q0 -46 -33 -77t-76 -31t-75.5 31.5t-32.5 76.5q0 46 32.5 77.5t75.5 31.5zM2061 70l161 -25v-45h-487v45l160 25v800l-133 25v45h299v-870zM1365 1362q-66 0 -89.5 -60t-25.5 -206l-3 -151h250l3 -89h-250v-778l203 -33v-45h-508v45l139 33 v778h-162v41l162 47v66q0 104 21 184t53 125.5t75.5 74.5t83 38.5t81.5 9.5q71 0 143 -21v-203h-49l-45 123q-33 21 -82 21zM543 1362q-66 0 -89.5 -60t-25.5 -206l-3 -151h250l3 -89h-250v-778l203 -33v-45h-508v45l139 33v778h-162v41l162 47v66q0 104 21 184t53 125.5 t75.5 74.5t83 38.5t81.5 9.5q71 0 143 -21v-203h-49l-45 123q-33 21 -82 21z" />
<glyph unicode="&#xfb04;" horiz-adv-x="2244" d="M2026 70l161 -25v-45h-487v45l160 25v1282l-160 24v45h326v-1351zM1365 1362q-66 0 -89.5 -60t-25.5 -206l-3 -151h250l3 -89h-250v-778l203 -33v-45h-508v45l139 33v778h-162v41l162 47v66q0 104 21 184t53 125.5t75.5 74.5t83 38.5t81.5 9.5q71 0 143 -21v-203h-49 l-45 123q-33 21 -82 21zM543 1362q-66 0 -89.5 -60t-25.5 -206l-3 -151h250l3 -89h-250v-778l203 -33v-45h-508v45l139 33v778h-162v41l162 47v66q0 104 21 184t53 125.5t75.5 74.5t83 38.5t81.5 9.5q71 0 143 -21v-203h-49l-45 123q-33 21 -82 21z" />
<glyph unicode="&#xfb06;" horiz-adv-x="1583" d="M1477 35q-31 -20 -94 -37.5t-129 -17.5q-55 0 -94 18.5t-59.5 51t-29 68.5t-8.5 79v659h-123v45l123 39l103 213h63v-213h215v-84h-215v-641q0 -73 32.5 -102t74.5 -29q58 0 141 16v-65zM440 885q-89 0 -127.5 -43.5t-38.5 -104.5q0 -21 4.5 -37.5t18.5 -40t47.5 -45 t84.5 -38.5l90 -31q44 -15 75.5 -29t65.5 -37.5t55 -51.5t35 -69.5t14 -93.5q0 -39 -6.5 -73.5t-29 -75t-59 -69t-102 -47.5t-153.5 -19q-81 0 -166.5 16.5t-122.5 30.5v231h47l49 -131q76 -68 195 -68q194 0 194 166q0 123 -153 173l-90 30q-56 18 -93 36t-74.5 48.5 t-56 76.5t-18.5 109q0 131 88 199t225 68q101 0 258 -31v-205h-47l-42 109q-54 47 -167 47z" />
<glyph unicode="&#xfb1d;" horiz-adv-x="666" d="M294 179q13 13 26 13l24 -12l53 -53q11 -12 11.5 -24t-11.5 -24l-54 -54q-12 -11 -24 -11.5t-24 11.5l-53 53q-12 13 -12 25t11 24zM264 1178q0 -1 -1 -6t-2 -14.5t-1 -20.5q0 -55 18 -78l145 -26q136 -23 136 -153q0 -69 -37.5 -188t-76.5 -186q-49 -77 -118 -103 q-9 -3 -18 -3q-16 0 -28 7t-12 16q0 3 1 5q129 228 129 325q0 91 -112 112l-164 30q-15 2 -25 11.5t-10 21.5q0 8 4 15l103 216q16 29 51 29q18 0 18 -10z" />
<glyph unicode="&#xfb1e;" />
<glyph unicode="&#xfb1f;" horiz-adv-x="1201" d="M322.173 91q-15.4277 0 -15.4277 8q0 2 1.54199 5l32.4004 81q7.71387 15 26.2285 15h478.282q18.5146 0 18.5146 -9q0 -2 -1.54297 -6l-32.4004 -81q-6.1709 -13 -29.3135 -13h-478.283zM799 1176q0 -1 -1 -6t-2 -14.5t-1 -20.5q0 -55 18 -78l145 -26q136 -23 136 -153 q0 -69 -37.5 -188t-76.5 -186q-49 -77 -118 -103q-9 -3 -18 -3q-16 0 -28 7t-12 16q0 3 1 5q129 228 129 325q0 91 -112 112l-164 30q-15 2 -25 11.5t-10 21.5q0 8 4 15l103 216q16 29 51 29q18 0 18 -10zM264 1178q0 -1 -1 -6t-2 -14.5t-1 -20.5q0 -55 18 -78l145 -26 q136 -23 136 -153q0 -69 -37.5 -188t-76.5 -186q-49 -77 -118 -103q-9 -3 -18 -3q-16 0 -28 7t-12 16q0 3 1 5q129 228 129 325q0 91 -112 112l-164 30q-15 2 -25 11.5t-10 21.5q0 8 4 15l103 216q16 29 51 29q18 0 18 -10z" />
<glyph unicode="&#xfb20;" horiz-adv-x="1144" d="M377 1049q41 0 57.5 -10t16.5 -32q0 -11 -5 -29l-26 -118l-61 -16q0 -194 88.5 -343t187.5 -174q40 29 72.5 69.5t52 78t36.5 89t24 85.5l18 85q11 50 16 70q6 13 2.5 23.5t-25.5 15.5l-47 10l-12 3l-10 2q-2 0 -6 2.5t-4.5 5t0 7t3.5 11.5l33 131q10 24 16 29t26 5h137 q48 0 67 -7.5t19 -33.5q0 -17 -3 -28l-26 -120l-56 -20q-47 -259 -54 -289q-43 -189 -123 -291q-108 -138 -357 -223q-110 -38 -259 -70q-77 -17 -96 -17q-22 0 -22 18q0 17 20 66l23 64q24 55 44 68t94 25l253 40q-109 75 -177.5 248.5t-68.5 360.5l-92 20q-40 8 -40 32 q0 4 2 10l60 216q6 21 18.5 37t24.5 16q9 0 19.5 -5t11.5 -13q1 -5 3 -22.5t3.5 -26.5t4.5 -22t7.5 -21t10.5 -12h99z" />
<glyph unicode="&#xfb21;" horiz-adv-x="1952" d="M418 648q-17 0 -36.5 -51t-19.5 -104q0 -83 11 -146.5t23 -91.5l24 -51q11 -23 11 -35q0 -5 -2 -13l-41 -122q-7 -23 -15 -28.5t-31 -5.5h-273q-20 0 -23 3v3q0 5 5 18l30 86q9 27 14.5 32t35.5 14l137 42q-3 17 -25.5 96t-22.5 142q0 59 17 112.5t38 83.5l38 54 q17 25 17 33q0 15 -25 39l-85 86q-10 11 -10 17t7 27l63 168q1 4 4 11q4 12 6 12q1 0 7 -4q9 -7 17 -12q75 -96 139 -169t132 -132t124.5 -100.5t138.5 -85.5t150 -76l181 -80q100 -38 151 -38q24 0 47.5 11t29.5 12q18 4 73.5 83.5t104 174.5t48.5 133q0 15 -16 27.5 t-13 20.5l62 156q10 24 15.5 28.5t26.5 4.5h160q21 0 28 -7q3 -4 3 -12q0 -7 -3 -17l-36 -121q-5 -16 -11 -23t-12 -8t-23 -1q-46 0 -74.5 -28.5t-28.5 -63.5q0 -66 -40.5 -168t-81.5 -180.5t-41 -88.5t18 -23t39 -22l93 -35l80 -27l85 -28q18 -6 18.5 -18t-9.5 -28 l-54 -134q-3 -8 -5 -10t-3.5 -2t-8 3t-12.5 5q-174 50 -348.5 111t-370 141.5t-361.5 178.5t-261 195l-10 10l-7.5 9t-6 5t-6.5 2z" />
<glyph unicode="&#xfb22;" horiz-adv-x="1948" d="M128 860q-20 0 -32 12q-8 8 -8 19q0 5 2 11l64 230q6 17 21.5 28t29.5 11q13 0 13 -9q0 -30 10.5 -64.5t24.5 -47.5h1454q21 0 28 -8q4 -4 4 -12q0 -7 -3 -17l-26 -91q-9 -30 -20.5 -43t-23 -14.5t-23.5 -5t-24 -23.5t-21 -61q-12 -71 -12 -144q0 -77 22 -213.5 t22 -216.5q0 -50 -21.5 -93t-59.5 -93q-10 -14 -15 -17t-20 -7l-30 -9q-9 -2 -14 -2t-6 2q-4 3 -4 18q0 70 1.5 288t1.5 498q0 39 -18.5 56.5t-69.5 17.5h-1247z" />
<glyph unicode="&#xfb23;" horiz-adv-x="2050" d="M171 860q-20 0 -31.5 12t-6.5 30l64 230q6 17 21.5 28t29.5 11q13 0 13 -9q0 -30 10.5 -64.5t24.5 -47.5h1624q20 0 26 -8q5 -4 5 -14q0 -7 -2 -15l-17 -91q-6 -27 -14 -40.5t-15.5 -17.5t-15.5 -9.5t-16 -24.5t-14 -55q-12 -64 -12 -144q0 -77 22 -213.5t22 -216.5 q0 -50 -21.5 -93t-59.5 -93q-10 -13 -14.5 -16t-20.5 -8l-30 -9q-9 -2 -14 -2t-7 2q-3 3 -3 18q0 70 1.5 288t1.5 498q0 39 -18.5 56.5t-69.5 17.5h-1463zM252 648q11 5 18 5q4 0 6 -2q7 -5 7 -31v-98q0 -28 12.5 -122t12.5 -153q0 -176 -118 -247q-30 -18 -49 -18 q-26 0 -26 35q0 10 3 25q21 115 31.5 216.5t11.5 155.5t2.5 98.5t8 66t24.5 38t56 31.5z" />
<glyph unicode="&#xfb24;" horiz-adv-x="1956" d="M115 165q11 24 16.5 28.5t25.5 4.5h1388q75 0 99 26t24 96v87q0 50 -2 88t-9.5 88t-21 86t-38.5 74.5t-59 62t-86 39t-117 15.5h-1147q-20 0 -32 12t-6 30l64 230q6 17 21.5 28t29.5 11q13 0 13 -9q0 -30 10.5 -65t24.5 -48h1190q48 0 86.5 -20.5t64.5 -52.5t47 -85.5 t33 -104t22.5 -125t15.5 -132t13 -140.5t15 -136q0 -84 -67.5 -168.5t-133.5 -84.5h-1506q-22 0 -29 6q-4 3 -4 9t4 16z" />
<glyph unicode="&#xfb25;" horiz-adv-x="1969" d="M258 1421q-38 -63 -38 -186q0 -63 21 -135q7 -13 11.5 -18.5t17 -15t34.5 -13.5t54 -4q121 0 324 1t357.5 2t156.5 1h454q154 -26 154 -186q0 -123 -92.5 -293t-246.5 -326t-315 -233q-40 -17 -50 -17q-2 0 -2.5 0.5t-0.5 3.5q0 11 18 60l63 140q9 25 21.5 40t42.5 30 q185 98 290.5 234.5t105.5 243.5q0 53 -28.5 83.5t-83.5 30.5h-1345q-54 0 -68 16.5t-14 59.5q0 68 4 130t16 135.5t19.5 113.5t27.5 136l27 131q8 37 16 44.5t42 7.5h128q30 0 33.5 -10t-5.5 -34l-33 -116q-7 -23 -16.5 -30t-32.5 -7q-37 0 -47.5 -3t-19.5 -17z" />
<glyph unicode="&#xfb26;" horiz-adv-x="2041" d="M1622 1049q50 0 89.5 -9t66 -23t45.5 -38t29 -47t16 -57.5t7.5 -62.5t1.5 -68v-604q0 -21 1.5 -49t1.5 -36q0 -35 -20 -45t-93 -10h-1530q-25 0 -37 6.5t-14 15t-2 27.5q0 41 -3.5 121.5t-3.5 119.5q0 373 60 543l-95 27q-39 12 -39 33q0 5 1 9l64 230q6 17 21.5 28 t29.5 11q13 0 13 -9q0 -30 10.5 -65t24.5 -48h1355zM305 500q0 -204 10.5 -253t58.5 -49h1322q59 0 73.5 18.5t14.5 74.5v23q0 36 -3 82t-8 88.5t-9.5 76.5t-8.5 61l-4 28q-8 58 -22 94.5t-34.5 60.5t-60.5 35.5t-85.5 15.5t-122.5 4h-1062q-30 0 -40 -13.5t-10 -45.5 q0 -51 -4.5 -151t-4.5 -150z" />
<glyph unicode="&#xfb27;" horiz-adv-x="1948" d="M1765 108l-34 -76q-12 -28 -22 -39.5t-31 -21.5q-12 -5 -17 -5q-11 0 -11 46t-6.5 307.5t-6.5 302.5q0 59 -1.5 84.5t-11 60t-27.5 46t-54.5 25.5t-89 17t-133.5 3h-1190q-16 0 -28 9.5t-12 24.5q0 2 2 10l64 230q6 18 19.5 28.5t26.5 10.5q18 0 18 -18q0 -29 10 -60 t25 -44l1254 -2q49 0 87 -9.5t63 -24.5t43 -41t27.5 -49.5t15.5 -59.5t8 -63l5 -68q3 -41 6 -67l26 -345q0 -8 2 -51t2 -49q0 -32 -6 -53t-23 -59z" />
<glyph unicode="&#xfb28;" horiz-adv-x="1948" d="M1536 1050q47 0 83.5 -10t61 -24.5t42.5 -41t28 -49t17.5 -60t10 -63t6 -68.5t6.5 -66l33 -486q1 -4 1 -12q0 -43 -28.5 -98.5t-60.5 -89.5q-16 -16 -30 -16q-26 0 -26 105q0 42 -8 270.5t-8 283.5q0 57 -1.5 82.5t-10.5 59.5t-27.5 46t-55 26t-89 17.5t-133.5 3.5h-965 q-45 0 -72 -55.5t-27 -115.5l32 -440q0 -9 1 -25t1 -23q0 -13 -1 -25.5t-2 -20t-5 -19.5t-4.5 -15.5t-6 -17.5t-6.5 -16q-26 -62 -44.5 -74.5t-85.5 -12.5h-153q-55 0 -55 23q0 5 18 59q16 42 33 53.5t76 22.5q66 10 81.5 28t15.5 91v8l-5 360q0 15 2 30.5t4 26.5t8 26 t8.5 22.5t11 22.5t11.5 19l12 20q11 17 12 19l-64 29q-3 1 -10 4t-10 4.5t-8 4.5t-7 5.5t-4 6.5t-2 8q0 3 2 9l64 230q6 18 19.5 28.5t26.5 10.5q18 0 18 -18q0 -29 10 -60t25 -44z" />
<glyph unicode="&#xfb29;" horiz-adv-x="952" d="M94 443v179h296v291h183v-291h287v-179h-766z" />
<glyph unicode="&#xfb2a;" horiz-adv-x="1422" d="M1218 1300q13 13 26 13l24 -12l53 -53q11 -11 11.5 -23.5t-11.5 -24.5l-54 -54q-12 -11 -24 -11.5t-24 11.5l-53 53q-12 13 -12 25t11 24zM449 -18q-22 0 -34.5 1.5t-28.5 8t-26.5 22t-17.5 40.5q-20 74 -37 167t-24.5 142.5t-24.5 188.5l-22 172q-1 8 -3 26t-3 23 t-4 16.5t-6 15.5l-10 11q-7 8 -16 13t-22 11l-47 20q-3 1 -7.5 3t-7 3.5t-6.5 3.5t-6.5 3.5t-5 3.5t-4 4.5t-2.5 5.5t-1 6t2 9l64 230q5 16 19.5 28t26.5 12q6 0 12 -4.5t6 -14.5q0 -29 10 -60t25 -44h159q19 0 28.5 -0.5t18.5 -2.5t12 -6t3 -11q0 -12 -12 -42l-23 -61 q-15 -37 -25 -51t-23 -18.5t-17 -6.5q-19 -13 -25.5 -25t-6.5 -32q0 -12 1 -19q3 -26 8.5 -87.5t8.5 -87t9.5 -74.5t14.5 -77.5t20.5 -67.5t30 -71.5t40.5 -64.5q36 -45 47 -45q7 0 11 12t11 45l101 507q7 37 7 46q0 19 -25 30l-21 8l-12 4q-9 3 -11 5l-4 4q-4 4 -3 9t4 13 l49 134q10 24 15.5 28.5t26.5 4.5h193q19 0 28.5 -0.5t18 -2.5t11.5 -6t3 -11q0 -12 -12 -42l-23 -60q-12 -29 -21.5 -45t-14.5 -19t-14 -6t-15 -7q-10 -7 -18 -16t-13 -16.5t-9.5 -19.5t-6.5 -19t-5 -20t-4 -17l-130 -476q-8 -32 -8 -44t6 -16t22 -4q4 0 16.5 1t21.5 1 q56 8 104.5 30t86 52t70 73t56 85.5t45 98t36 102.5t29.5 105q8 34 8 48q0 5 -0.5 9t-1.5 7t-3.5 6t-3.5 5t-5 4l-6 3q-2 1 -7.5 3t-7.5 2.5t-9 2.5t-9 3l-21 7q-26 8 -29 14q-3 7 2 21l50 134q9 23 15 28t27 5h192q19 0 28.5 -0.5t18.5 -2.5t12 -6t3 -11q0 -12 -12 -42 l-24 -60q-15 -38 -24 -52.5t-22.5 -18t-17.5 -6.5q-12 -8 -21.5 -21t-16 -30.5t-10 -29.5t-7.5 -31t-5 -23q-56 -220 -73 -271q-68 -211 -186 -315q-170 -150 -504 -150z" />
<glyph unicode="&#xfb2b;" horiz-adv-x="1422" d="M330 1313q13 13 26 13l24 -12l53 -53q11 -11 11.5 -23.5t-11.5 -24.5l-54 -54q-12 -11 -24 -11.5t-24 11.5l-53 53q-12 13 -12 25t11 24zM449 -18q-22 0 -34.5 1.5t-28.5 8t-26.5 22t-17.5 40.5q-20 74 -37 167t-24.5 142.5t-24.5 188.5l-22 172q-1 8 -3 26t-3 23 t-4 16.5t-6 15.5l-10 11q-7 8 -16 13t-22 11l-47 20q-3 1 -7.5 3t-7 3.5t-6.5 3.5t-6.5 3.5t-5 3.5t-4 4.5t-2.5 5.5t-1 6t2 9l64 230q5 16 19.5 28t26.5 12q6 0 12 -4.5t6 -14.5q0 -29 10 -60t25 -44h159q19 0 28.5 -0.5t18.5 -2.5t12 -6t3 -11q0 -12 -12 -42l-23 -61 q-15 -37 -25 -51t-23 -18.5t-17 -6.5q-19 -13 -25.5 -25t-6.5 -32q0 -12 1 -19q3 -26 8.5 -87.5t8.5 -87t9.5 -74.5t14.5 -77.5t20.5 -67.5t30 -71.5t40.5 -64.5q36 -45 47 -45q7 0 11 12t11 45l101 507q7 37 7 46q0 19 -25 30l-21 8l-12 4q-9 3 -11 5l-4 4q-4 4 -3 9t4 13 l49 134q10 24 15.5 28.5t26.5 4.5h193q19 0 28.5 -0.5t18 -2.5t11.5 -6t3 -11q0 -12 -12 -42l-23 -60q-12 -29 -21.5 -45t-14.5 -19t-14 -6t-15 -7q-10 -7 -18 -16t-13 -16.5t-9.5 -19.5t-6.5 -19t-5 -20t-4 -17l-130 -476q-8 -32 -8 -44t6 -16t22 -4q4 0 16.5 1t21.5 1 q56 8 104.5 30t86 52t70 73t56 85.5t45 98t36 102.5t29.5 105q8 34 8 48q0 5 -0.5 9t-1.5 7t-3.5 6t-3.5 5t-5 4l-6 3q-2 1 -7.5 3t-7.5 2.5t-9 2.5t-9 3l-21 7q-26 8 -29 14q-3 7 2 21l50 134q9 23 15 28t27 5h192q19 0 28.5 -0.5t18.5 -2.5t12 -6t3 -11q0 -12 -12 -42 l-24 -60q-15 -38 -24 -52.5t-22.5 -18t-17.5 -6.5q-12 -8 -21.5 -21t-16 -30.5t-10 -29.5t-7.5 -31t-5 -23q-56 -220 -73 -271q-68 -211 -186 -315q-170 -150 -504 -150z" />
<glyph unicode="&#xfb2c;" horiz-adv-x="1422" d="M1218 1300q13 13 26 13l24 -12l53 -53q11 -11 11.5 -23.5t-11.5 -24.5l-54 -54q-12 -11 -24 -11.5t-24 11.5l-53 53q-12 13 -12 25t11 24zM859 592q10 11 21 11t23 -11l47 -47q11 -11 11 -22t-11 -22l-47 -47q-11 -10 -21 -10l-23 11l-47 48q-11 11 -11 21t11 21z M449 -18q-22 0 -34.5 1.5t-28.5 8t-26.5 22t-17.5 40.5q-20 74 -37 167t-24.5 142.5t-24.5 188.5l-22 172q-1 8 -3 26t-3 23t-4 16.5t-6 15.5l-10 11q-7 8 -16 13t-22 11l-47 20q-3 1 -7.5 3t-7 3.5t-6.5 3.5t-6.5 3.5t-5 3.5t-4 4.5t-2.5 5.5t-1 6t2 9l64 230q5 16 19.5 28 t26.5 12q6 0 12 -4.5t6 -14.5q0 -29 10 -60t25 -44h159q19 0 28.5 -0.5t18.5 -2.5t12 -6t3 -11q0 -12 -12 -42l-23 -61q-15 -37 -25 -51t-23 -18.5t-17 -6.5q-19 -13 -25.5 -25t-6.5 -32q0 -12 1 -19q3 -26 8.5 -87.5t8.5 -87t9.5 -74.5t14.5 -77.5t20.5 -67.5t30 -71.5 t40.5 -64.5q36 -45 47 -45q7 0 11 12t11 45l101 507q7 37 7 46q0 19 -25 30l-21 8l-12 4q-9 3 -11 5l-4 4q-4 4 -3 9t4 13l49 134q10 24 15.5 28.5t26.5 4.5h193q19 0 28.5 -0.5t18 -2.5t11.5 -6t3 -11q0 -12 -12 -42l-23 -60q-12 -29 -21.5 -45t-14.5 -19t-14 -6t-15 -7 q-10 -7 -18 -16t-13 -16.5t-9.5 -19.5t-6.5 -19t-5 -20t-4 -17l-130 -476q-8 -32 -8 -44t6 -16t22 -4q4 0 16.5 1t21.5 1q56 8 104.5 30t86 52t70 73t56 85.5t45 98t36 102.5t29.5 105q8 34 8 48q0 5 -0.5 9t-1.5 7t-3.5 6t-3.5 5t-5 4l-6 3q-2 1 -7.5 3t-7.5 2.5t-9 2.5 t-9 3l-21 7q-26 8 -29 14q-3 7 2 21l50 134q9 23 15 28t27 5h192q19 0 28.5 -0.5t18.5 -2.5t12 -6t3 -11q0 -12 -12 -42l-24 -60q-15 -38 -24 -52.5t-22.5 -18t-17.5 -6.5q-12 -8 -21.5 -21t-16 -30.5t-10 -29.5t-7.5 -31t-5 -23q-56 -220 -73 -271q-68 -211 -186 -315 q-170 -150 -504 -150z" />
<glyph unicode="&#xfb2d;" horiz-adv-x="1422" d="M330 1313q13 13 26 13l24 -12l53 -53q11 -11 11.5 -23.5t-11.5 -24.5l-54 -54q-12 -11 -24 -11.5t-24 11.5l-53 53q-12 13 -12 25t11 24zM859 592q10 11 21 11t23 -11l47 -47q11 -11 11 -22t-11 -22l-47 -47q-11 -10 -21 -10l-23 11l-47 48q-11 11 -11 21t11 21zM449 -18 q-22 0 -34.5 1.5t-28.5 8t-26.5 22t-17.5 40.5q-20 74 -37 167t-24.5 142.5t-24.5 188.5l-22 172q-1 8 -3 26t-3 23t-4 16.5t-6 15.5l-10 11q-7 8 -16 13t-22 11l-47 20q-3 1 -7.5 3t-7 3.5t-6.5 3.5t-6.5 3.5t-5 3.5t-4 4.5t-2.5 5.5t-1 6t2 9l64 230q5 16 19.5 28t26.5 12 q6 0 12 -4.5t6 -14.5q0 -29 10 -60t25 -44h159q19 0 28.5 -0.5t18.5 -2.5t12 -6t3 -11q0 -12 -12 -42l-23 -61q-15 -37 -25 -51t-23 -18.5t-17 -6.5q-19 -13 -25.5 -25t-6.5 -32q0 -12 1 -19q3 -26 8.5 -87.5t8.5 -87t9.5 -74.5t14.5 -77.5t20.5 -67.5t30 -71.5t40.5 -64.5 q36 -45 47 -45q7 0 11 12t11 45l101 507q7 37 7 46q0 19 -25 30l-21 8l-12 4q-9 3 -11 5l-4 4q-4 4 -3 9t4 13l49 134q10 24 15.5 28.5t26.5 4.5h193q19 0 28.5 -0.5t18 -2.5t11.5 -6t3 -11q0 -12 -12 -42l-23 -60q-12 -29 -21.5 -45t-14.5 -19t-14 -6t-15 -7 q-10 -7 -18 -16t-13 -16.5t-9.5 -19.5t-6.5 -19t-5 -20t-4 -17l-130 -476q-8 -32 -8 -44t6 -16t22 -4q4 0 16.5 1t21.5 1q56 8 104.5 30t86 52t70 73t56 85.5t45 98t36 102.5t29.5 105q8 34 8 48q0 5 -0.5 9t-1.5 7t-3.5 6t-3.5 5t-5 4l-6 3q-2 1 -7.5 3t-7.5 2.5t-9 2.5 t-9 3l-21 7q-26 8 -29 14q-3 7 2 21l50 134q9 23 15 28t27 5h192q19 0 28.5 -0.5t18.5 -2.5t12 -6t3 -11q0 -12 -12 -42l-24 -60q-15 -38 -24 -52.5t-22.5 -18t-17.5 -6.5q-12 -8 -21.5 -21t-16 -30.5t-10 -29.5t-7.5 -31t-5 -23q-56 -220 -73 -271q-68 -211 -186 -315 q-170 -150 -504 -150z" />
<glyph unicode="&#xfb2e;" horiz-adv-x="1234" d="M474 -279q-10 0 -10 8q0 2 1 5l21 81q5 15 17 15h310q12 0 12 -9q0 -2 -1 -6l-21 -81q-4 -13 -19 -13h-310zM418 648q-17 0 -36.5 -51t-19.5 -104q0 -83 11 -146.5t24 -91.5l23 -51q11 -23 11 -35q0 -5 -2 -13l-41 -122q-7 -23 -15 -28.5t-31 -5.5h-273q-20 0 -22 3 q-1 1 -1 3q0 5 5 18l30 86q9 27 14.5 32t35.5 14l137 42q-3 17 -25.5 96t-22.5 142q0 59 17 112.5t38 83.5l38 54q17 25 17 33q0 15 -25 39l-85 86q-11 11 -11 17t8 27l63 168q9 27 13 27q5 0 21 -20l384 -473q28 -37 43 -37q18 0 48 47t53 110t23 102q0 15 -16 27.5 t-13 20.5l62 156q10 24 15.5 28.5t26.5 4.5h160q21 0 27.5 -7.5t0.5 -28.5l-36 -121q-5 -16 -11 -23t-12 -8t-23 -1q-46 0 -74.5 -28.5t-28.5 -63.5q0 -66 -21 -139t-42.5 -122t-21.5 -59q0 -20 27 -47q38 -41 66 -67t44 -38l52 -36l68 -49q17 -13 17 -23q0 -9 -8 -23 l-74 -149q-6 -10 -8.5 -13t-7 -1.5t-13.5 10.5q-222 209 -321.5 313.5t-251.5 296.5q-20 26 -30 26z" />
<glyph unicode="&#xfb2f;" horiz-adv-x="1234" d="M712 -277.02l9 -184.014q0 -9.89355 -10 -9.89355h-86q-9 0 -9 9.89355l10 184.014h-129q-10 0 -10 7.91406q0 1.97852 1 4.94629l21 80.1348q5 14.8398 17 14.8398h310q12 0 12 -8.90332q0 -1.97852 -1 -5.93652l-21 -80.1348q-4 -12.8604 -19 -12.8604h-95zM418 648 q-17 0 -36.5 -51t-19.5 -104q0 -83 11 -146.5t24 -91.5l23 -51q11 -23 11 -35q0 -5 -2 -13l-41 -122q-7 -23 -15 -28.5t-31 -5.5h-273q-20 0 -22 3q-1 1 -1 3q0 5 5 18l30 86q9 27 14.5 32t35.5 14l137 42q-3 17 -25.5 96t-22.5 142q0 59 17 112.5t38 83.5l38 54 q17 25 17 33q0 15 -25 39l-85 86q-11 11 -11 17t8 27l63 168q9 27 13 27q5 0 21 -20l384 -473q28 -37 43 -37q18 0 48 47t53 110t23 102q0 15 -16 27.5t-13 20.5l62 156q10 24 15.5 28.5t26.5 4.5h160q21 0 27.5 -7.5t0.5 -28.5l-36 -121q-5 -16 -11 -23t-12 -8t-23 -1 q-46 0 -74.5 -28.5t-28.5 -63.5q0 -66 -21 -139t-42.5 -122t-21.5 -59q0 -20 27 -47q38 -41 66 -67t44 -38l52 -36l68 -49q17 -13 17 -23q0 -9 -8 -23l-74 -149q-6 -10 -8.5 -13t-7 -1.5t-13.5 10.5q-222 209 -321.5 313.5t-251.5 296.5q-20 26 -30 26z" />
<glyph unicode="&#xfb30;" horiz-adv-x="1234" d="M614 149q10 11 21 11t23 -11l47 -47q11 -11 11 -22t-11 -22l-47 -47q-11 -10 -21 -10l-23 11l-47 48q-11 11 -11 21t11 21zM418 648q-17 0 -36.5 -51t-19.5 -104q0 -83 11 -146.5t24 -91.5l23 -51q11 -23 11 -35q0 -5 -2 -13l-41 -122q-7 -23 -15 -28.5t-31 -5.5h-273 q-20 0 -22 3q-1 1 -1 3q0 5 5 18l30 86q9 27 14.5 32t35.5 14l137 42q-3 17 -25.5 96t-22.5 142q0 59 17 112.5t38 83.5l38 54q17 25 17 33q0 15 -25 39l-85 86q-11 11 -11 17t8 27l63 168q9 27 13 27q5 0 21 -20l384 -473q28 -37 43 -37q18 0 48 47t53 110t23 102 q0 15 -16 27.5t-13 20.5l62 156q10 24 15.5 28.5t26.5 4.5h160q21 0 27.5 -7.5t0.5 -28.5l-36 -121q-5 -16 -11 -23t-12 -8t-23 -1q-46 0 -74.5 -28.5t-28.5 -63.5q0 -66 -21 -139t-42.5 -122t-21.5 -59q0 -20 27 -47q38 -41 66 -67t44 -38l52 -36l68 -49q17 -13 17 -23 q0 -9 -8 -23l-74 -149q-6 -10 -8.5 -13t-7 -1.5t-13.5 10.5q-222 209 -321.5 313.5t-251.5 296.5q-20 26 -30 26z" />
<glyph unicode="&#xfb31;" horiz-adv-x="975" d="M837 0h-744q-22 0 -29 6q-4 3 -4 9t4 16l49 134q10 24 15.5 28.5t26.5 4.5h517q33 0 44 5t11 20v20q-8 57 -16.5 130t-13.5 120.5t-14 104t-19 91.5t-28 71t-42 55.5t-60 32t-83 12.5h-264q-20 0 -32 12t-6 30l64 230q6 17 21.5 28t29.5 11q13 0 13 -9q0 -30 10.5 -65 t24.5 -48h194q76 0 127 -13.5t86 -61.5t53 -93.5t27.5 -157.5t11 -201.5t1.5 -274.5v-7q0 -28 4.5 -35t24.5 -7h54q21 0 28 -8q4 -4 4 -11t-3 -17l-41 -130q-9 -23 -16 -27.5t-30 -4.5zM373 591q10 11 21 11t23 -11l47 -47q11 -11 11 -22t-11 -22l-47 -47q-11 -10 -21 -10 l-23 11l-47 48q-11 11 -11 21t11 21z" />
<glyph unicode="&#xfb32;" horiz-adv-x="789" d="M335 1049h49q16 0 40.5 -1.5t34.5 -3.5t26 -7t21 -11l16 -18q9 -11 11 -24t6 -32t4.5 -41t0.5 -51q0 -139 13 -248.5t31 -173.5t46 -112.5t48 -68.5t47 -39q21 -14 25 -24q2 -3 2 -7q0 -8 -6 -19q-20 -18 -35 -35t-24 -28.5t-17.5 -28.5t-11.5 -23.5t-9.5 -25.5t-8.5 -23 q-11 -18 -22 -19h-2q-9 0 -15 6q-7 7 -20 25q-87 120 -114 363l-17 -27l-47 -99l-37 -81q-11 -24 -29.5 -58.5t-26 -46t-25 -29.5t-28 -21.5t-33 -9.5t-43 -6.5t-54.5 -0.5h-43q-22 0 -28 6q-4 2 -4 8t4 16l53 136q14 34 53 34q49 0 89 17t67.5 42t52 68.5t40 82t35.5 97.5 q-3 29 -7 73l-6 65q-2 21 -6 53t-8 47t-10.5 36.5t-14.5 30.5l-21 21q-12 12 -28 16t-35.5 7.5t-45.5 3.5h-86q-20 0 -31.5 12t-6.5 30l64 230q6 17 21.5 28t29.5 11q13 0 13 -9q0 -6 4.5 -30t4.5 -34q0 -22 15.5 -35.5t38.5 -13.5zM234 593q10 11 21 11t23 -11l47 -47 q11 -11 11 -22t-11 -22l-47 -47q-11 -10 -21 -10l-23 11l-47 48q-11 11 -11 21t11 21z" />
<glyph unicode="&#xfb33;" horiz-adv-x="962" d="M128 860q-20 0 -32 12q-8 8 -8 19q0 5 2 11l64 230q6 17 21.5 28t29.5 11q13 0 13 -9q0 -30 10.5 -65t24.5 -48h599q21 0 28 -7q4 -5 4 -13q0 -7 -3 -17l-26 -91q-9 -30 -20.5 -43t-23 -14.5t-23.5 -5t-24 -23.5t-21 -61q-12 -71 -12 -144q0 -77 22 -213.5t22 -216.5 q0 -50 -21.5 -93t-59.5 -93q-10 -14 -15 -17t-20 -7l-30 -8q-9 -2 -14 -2t-7 2q-3 3 -3 18q0 70 1.5 287.5t1.5 497.5q0 39 -18.5 57t-69.5 18h-392zM324 590q10 11 21 11t23 -11l47 -47q11 -11 11 -22t-11 -22l-47 -47q-11 -10 -21 -10l-23 11l-47 48q-11 11 -11 21t11 21z " />
<glyph unicode="&#xfb34;" horiz-adv-x="1154" d="M171 860q-20 0 -31.5 12t-6.5 30l64 230q6 17 21.5 28t29.5 11q13 0 13 -9q0 -30 10.5 -65t24.5 -48h735q20 0 27 -7q4 -5 4 -15q0 -7 -2 -15l-17 -91q-6 -27 -14 -40.5t-15.5 -17.5t-15.5 -9.5t-16 -24.5t-14 -55q-12 -64 -12 -144q0 -77 22 -213.5t22 -216.5 q0 -50 -21.5 -93t-59.5 -93q-10 -13 -14.5 -16t-20.5 -8l-30 -8q-9 -2 -14 -2t-6 2q-4 3 -4 18q0 70 1.5 287.5t1.5 497.5q0 39 -18.5 57t-69.5 18h-574zM252 648q11 5 18 5q4 0 6 -2q7 -5 7 -31v-98q0 -28 12.5 -122t12.5 -153q0 -176 -118 -247q-30 -18 -49 -18 q-26 0 -26 35q0 10 3 25q21 115 31.5 216.5t11.5 155.5t2.5 98.5t8 66t24.5 38t56 31.5zM536 592q10 11 21 11t23 -11l47 -47q11 -11 11 -22t-11 -22l-47 -47q-11 -10 -21 -10l-23 11l-47 48q-11 11 -11 21t11 21z" />
<glyph unicode="&#xfb35;" horiz-adv-x="597" d="M477 801q0 -31 -0.5 -92t-0.5 -81q0 -77 18 -212.5t18 -215.5q0 -50 -21.5 -93t-59.5 -93q-10 -13 -14.5 -16t-20.5 -8l-30 -8q-9 -2 -14 -2t-6 2q-4 3 -4 18v785q0 36 -17.5 51t-67.5 24q-144 24 -146 24q-16 3 -25 18q-6 10 -6 22q0 5 1 10l51 198q5 17 21 28t30 11 q13 0 13 -9q0 -29 9.5 -59t24.5 -43q67 -14 113 -30.5t72.5 -33t40 -41t17.5 -46.5t4 -57v-51zM150 592q10 11 21 11t23 -11l47 -47q11 -11 11 -22t-11 -22l-47 -47q-11 -10 -21 -10l-23 11l-47 48q-11 11 -11 21t11 21z" />
<glyph unicode="&#xfb36;" horiz-adv-x="714" d="M318 569q0 55 5 102.5t10.5 75.5t5.5 36q0 22 -8.5 36.5t-26.5 23.5t-34.5 14t-43 11t-42.5 12q-21 7 -21 30q0 8 3 18l50 204q4 17 20.5 28t30.5 11q13 0 13 -9q0 -30 10.5 -65t24.5 -48l280 -53q22 -7 27 -21q2 -6 2 -13q0 -10 -4 -22l-20 -78q-23 -60 -54 -60h-4 l-28 6q-3 1 -9 1q-17 0 -29 -15t-18 -31q-13 -43 -13 -99q0 -43 3 -68q3 -28 29 -168t26 -228q0 -50 -21.5 -93t-59.5 -93q-10 -13 -14.5 -16t-20.5 -8l-30 -8q-9 -2 -14 -2t-6 2q-4 3 -4 18q0 37 5.5 96.5t5.5 83.5q0 82 -13 205t-13 184zM143 592q10 11 21 11t23 -11 l47 -47q11 -11 11 -22t-11 -22l-47 -47q-11 -10 -21 -10l-23 11l-47 48q-11 11 -11 21t11 21z" />
<glyph unicode="&#xfb37;" horiz-adv-x="1227" d="M330 621q0 -98 5 -214.5t5 -144.5q0 -75 -26 -127t-93 -125q-17 -18 -37 -23l-30 -5q-6 -1 -10 -1q-8 0 -9 3q-3 4 -3 20q0 94 43 360.5t43 424.5q0 34 -13.5 52.5t-29.5 18.5h-17q-20 0 -31 12q-9 8 -9 20q0 5 2 10l64 230q6 17 21.5 28t29.5 11q13 0 13 -9 q0 -30 10.5 -65t24.5 -48h820q20 0 26 -7q5 -5 5 -15q0 -7 -2 -15l-17 -91q-6 -27 -14 -40.5t-15.5 -17.5t-15.5 -9.5t-16 -24.5t-14 -55q-12 -64 -12 -144q0 -77 22 -213.5t22 -216.5q0 -50 -21.5 -93t-59.5 -93q-16 -21 -52 -32h-13q-9 -2 -14 -2t-7 2q-3 3 -3 18 q0 70 1.5 287.5t1.5 497.5q0 39 -18.5 57t-69.5 18h-368q-35 0 -60 -23.5t-37 -62.5t-17 -76t-5 -77zM600 590q10 11 21 11t23 -11l47 -47q11 -11 11 -22t-11 -22l-47 -47q-11 -10 -21 -10l-23 11l-47 48q-11 11 -11 21t11 21z" />
<glyph unicode="&#xfb38;" horiz-adv-x="1106" d="M296 74q-51 104 -79.5 204.5t-28.5 237.5q0 143 35 314q0 7 -16.5 23.5t-31.5 20.5l-51 11q-29 5 -36 14q-4 5 -4 14q0 6 2 14l86 194q8 18 24.5 34t28.5 16q13 0 13 -14q0 -59 35 -91l170 -49q2 -1 7.5 -2t7 -1.5t5 -2t4.5 -2.5l3 -3q2 -2 2.5 -4t1 -5t0 -7t-1.5 -9 l-20 -118q-5 -27 -14 -34t-42 -7q-69 0 -73 -20q0 -230 32.5 -373t120.5 -243q106 0 182 16t175 58q68 73 68 340q0 86 -6 122q-7 59 -42 98.5t-93 39.5q-13 0 -25 -2.5t-24 -9.5t-20.5 -11.5t-20 -17.5t-17 -18t-18 -22t-15 -21t-15.5 -23t-14 -21q-31 -18 -40 14 q10 42 17 68.5t20.5 67.5t26 67.5t33 57.5t42.5 49t53 30t66 12q44 0 79 -17.5t58 -43.5t39.5 -70.5t24.5 -83.5t12.5 -97.5t5.5 -97.5t1 -98q0 -85 -16 -181t-56 -189.5t-96 -127.5q-12 -7 -18.5 -10.5t-18.5 -8.5t-18.5 -7.5t-25.5 -7t-32 -6.5l-48 -9l-61 -11l-83 -14 l-105 -18q-39 -7 -64 -7q-27 0 -43.5 19t-47.5 80zM570 593q10 11 21 11t23 -11l47 -47q11 -11 11 -22t-11 -22l-47 -47q-11 -10 -21 -10l-23 11l-47 48q-11 11 -11 21t11 21z" />
<glyph unicode="&#xfb39;" horiz-adv-x="666" d="M264 1178q0 -1 -1 -6t-2 -14.5t-1 -20.5q0 -55 18 -78l145 -26q136 -23 136 -153q0 -69 -37.5 -188t-76.5 -186q-49 -77 -118 -103q-9 -3 -18 -3q-16 0 -28 7t-12 16q0 3 1 5q129 228 129 325q0 91 -112 112l-164 30q-15 2 -25 11.5t-10 21.5q0 8 4 15l103 216 q16 29 51 29q18 0 18 -10zM177 750q10 11 21 11t23 -11l47 -47q11 -11 11 -22t-11 -22l-47 -47q-11 -10 -21 -10l-23 11l-47 48q-11 11 -11 21t11 21z" />
<glyph unicode="&#xfb3a;" horiz-adv-x="985" d="M723 627q0 42 -1 67t-6.5 52t-14 41.5t-26 29.5t-40.5 21.5t-59 12.5t-79.5 7.5t-105.5 1.5h-263q-20 0 -32 12q-8 8 -8 19q0 5 2 11l64 230q6 17 21.5 28t29.5 11q13 0 13 -9q0 -30 10.5 -65t24.5 -48h360q256 0 256 -232q0 -35 -10.5 -175t-10.5 -167q0 -169 27 -390 t27 -309q0 -50 -21.5 -93t-59.5 -93q-12 -15 -44 -26l-30 -11q-8 -2 -13 -2t-7 2q-4 4 -4 19v1055zM373 591q10 11 21 11t23 -11l47 -47q11 -11 11 -22t-11 -22l-47 -47q-11 -10 -21 -10l-23 11l-47 48q-11 11 -11 21t11 21z" />
<glyph unicode="&#xfb3b;" horiz-adv-x="975" d="M115 165q11 24 16.5 28.5t25.5 4.5h516q75 0 99 26t24 96v87q0 50 -2 88t-9.5 88t-21 86t-38.5 74.5t-59 62t-86 39t-117 15.5h-275q-20 0 -32 12t-6 30l64 230q6 17 21.5 28t29.5 11q13 0 13 -9q0 -30 10.5 -65t24.5 -48h318q48 0 86.5 -20.5t64.5 -52.5t47 -85.5 t33 -104t22.5 -125t15.5 -132t13 -140.5t15 -136q0 -84 -67.5 -168.5t-133.5 -84.5h-634q-22 0 -29 6q-4 3 -4 9t4 16zM431 591q10 11 21 11t23 -11l47 -47q11 -11 11 -22t-11 -22l-47 -47q-11 -10 -21 -10l-23 11l-47 48q-11 11 -11 21t11 21z" />
<glyph unicode="&#xfb3c;" horiz-adv-x="1012" d="M258 1421q-38 -63 -38 -186q0 -63 21 -135q17 -51 66 -51h454q154 -26 154 -186q0 -123 -92.5 -293t-246.5 -326t-315 -233q-40 -17 -50 -17q-2 0 -2.5 0.5t-0.5 3.5q0 11 18 60l63 140q9 25 21.5 40t42.5 30q185 98 290.5 234.5t105.5 243.5q0 53 -28.5 83.5t-83.5 30.5 h-456q-54 0 -68 18t-14 62q0 68 4 130t16 135.5t19.5 113.5t27.5 136l27 131q8 37 16 44.5t42 7.5h128q30 0 33.5 -10t-5.5 -34l-33 -116q-7 -23 -16.5 -30t-32.5 -7q-37 0 -47.5 -3t-19.5 -17zM343 672q10 11 21 11t23 -11l47 -47q11 -11 11 -22t-11 -22l-47 -47 q-11 -10 -21 -10l-23 11l-47 48q-11 11 -11 21t11 21z" />
<glyph unicode="&#xfb3d;" horiz-adv-x="1180" d="M799 1049q50 0 89.5 -9t66 -23t45.5 -38t29 -47t16 -57.5t7.5 -62.5t1.5 -68v-604q0 -21 1.5 -49t1.5 -36q0 -35 -20 -45t-93 -10h-707q-25 0 -37 6.5t-14 15t-2 27.5q0 41 -3.5 121.5t-3.5 119.5q0 373 60 543l-95 27q-39 12 -39 33q0 5 1 9l64 230q6 17 21.5 28 t29.5 11q13 0 13 -9q0 -30 10.5 -65t24.5 -48h532zM305 500q0 -204 10.5 -253t58.5 -49h499q59 0 73.5 18.5t14.5 74.5v23q0 36 -3 82t-8 88.5t-9.5 76.5t-8.5 61l-4 28q-8 58 -22 94.5t-34.5 60.5t-60.5 35.5t-85.5 15.5t-122.5 4h-239q-30 0 -40 -13.5t-10 -45.5 q0 -51 -4.5 -151t-4.5 -150zM584 589q10 11 21 11t23 -11l47 -47q11 -11 11 -22t-11 -22l-47 -47q-11 -10 -21 -10l-23 11l-47 48q-11 11 -11 21t11 21z" />
<glyph unicode="&#xfb3e;" horiz-adv-x="1236" d="M161 20q0 28 41 149.5t82 274.5t41 258q0 79 -46 101l-148 57q-16 6 -23 9.5t-13 12.5q-4 5 -4 11q0 4 2 9l64 230q5 16 18.5 28t24.5 12q13 0 21 -10q10 -15 17.5 -59.5t17.5 -53.5q27 -18 81 -34.5t84 -36.5t30 -60q0 -16 -2.5 -32.5t-8.5 -47t-11 -66.5 q0 -15 14.5 -19.5t24.5 6.5q123 106 190 206q16 19 24 37.5t8 25.5t12 13t34 7t75 1q58 0 94.5 -3.5t73 -16.5t57.5 -36t41 -63.5t32.5 -98t23.5 -140.5l13 -100l16 -112q5 -43 10 -110.5t5 -131.5q0 -38 -9 -75.5t-28.5 -75.5t-59.5 -62t-94 -24h-433q-22 0 -29.5 6t0.5 25 l53 134q10 24 15.5 28.5t26.5 4.5h330q64 0 86 13t22 57q0 6 -2 22.5t-2 27.5l-32 249q-28 156 -72 218t-146 62q-40 0 -85 -7q-62 -20 -99 -51q-44 -30 -78 -64t-59 -79t-41.5 -83.5t-32.5 -102.5t-25.5 -110t-25.5 -131.5t-28 -142.5q-10 -46 -24.5 -61t-58.5 -15h-49 q-20 0 -28 3.5t-8 16.5zM723 590q10 11 21 11t23 -11l47 -47q11 -11 11 -22t-11 -22l-47 -47q-11 -10 -21 -10l-23 11l-47 48q-11 11 -11 21t11 21z" />
<glyph unicode="&#xfb3f;" horiz-adv-x="615" d="M476 899q0 -26 -5.5 -39.5t-11.5 -22t-11.5 -57t-5.5 -136.5v-15q0 -169 27 -390t27 -309q0 -81 -11 -162q-4 -26 -12 -50.5t-15 -40.5t-19.5 -34t-18.5 -25.5t-19.5 -22t-14.5 -16.5q-29 -28 -39 -28q-2 0 -3 1q-9 4 -9 61q0 235 -8 586.5t-8 590.5q0 45 -29 57.5 t-100 12.5h-70q-20 0 -32 12q-8 8 -8 19q0 5 2 11l64 230q5 16 19 28.5t25 12.5q17 0 20 -11q15 -95 35 -113h183q48 0 48 -64v-86zM125 596q10 11 21 11t23 -11l47 -47q11 -11 11 -22t-11 -22l-47 -47q-11 -10 -21 -10l-23 11l-47 48q-11 11 -11 21t11 21z" />
<glyph unicode="&#xfb40;" horiz-adv-x="729" d="M624 76q0 -44 -26.5 -60t-106.5 -16h-404q-33 0 -33 16q0 7 4 15l49 134q10 24 15.5 28.5t26.5 4.5h298q26 0 35 12t9 37q0 80 -4 175t-13.5 198.5t-27.5 171.5t-43 68h-191q-16 0 -28 9t-12 23q0 2 2 10l64 230q6 18 19.5 28.5t26.5 10.5q18 0 18 -18q0 -29 10 -60 t25 -44h167q51 0 68 -46t17 -143v-77q0 -49 3.5 -138t3.5 -140q0 -59 14 -244zM252 592q10 11 21 11t23 -11l47 -47q11 -11 11 -22t-11 -22l-47 -47q-11 -10 -21 -10l-23 11l-47 48q-11 11 -11 21t11 21z" />
<glyph unicode="&#xfb41;" horiz-adv-x="1081" d="M99 884l67 248q5 17 20.5 28.5t28.5 11.5q18 0 18 -19q0 -29 10 -60t25 -44h520q63 0 124 -55t70 -134q22 -113 22 -236q0 -77 -4.5 -142t-18 -134t-34.5 -123.5t-56.5 -104.5t-83 -82.5t-114.5 -52t-150 -19.5q-62 0 -112 14t-87 33.5t-65.5 61t-47.5 75.5t-31.5 99 t-19 109.5t-10 129t-4 135t-0.5 149.5q0 22 -0.5 32.5t-8.5 19.5t-11 10l-22 12q-26 10 -26 29q0 4 1 9zM876 500q0 56 -1.5 94.5t-6.5 77t-13.5 63t-22.5 47.5t-34 36.5t-48.5 23.5t-64.5 14t-83 4q-159 0 -264 -15q-39 -6 -53 -21.5t-14 -63.5q0 -107 8 -192.5 t21.5 -143.5t35.5 -100.5t44.5 -66t53.5 -37.5t58.5 -18t63.5 -4q68 0 134.5 23t115.5 58q44 42 57 82t13 95v44zM539 591q10 11 21 11t23 -11l47 -47q11 -11 11 -22t-11 -22l-47 -47q-11 -10 -21 -10l-23 11l-47 48q-11 11 -11 21t11 21z" />
<glyph unicode="&#xfb42;" horiz-adv-x="1144" d="M377 1049q41 0 57.5 -10t16.5 -32q0 -11 -5 -29l-26 -118l-61 -16q0 -194 88.5 -343t187.5 -174q40 29 72.5 69.5t52 78t36.5 89t24 85.5l18 85q11 50 16 70q6 13 2.5 23.5t-25.5 15.5l-47 10l-12 3l-10 2q-2 0 -6 2.5t-4.5 5t0 7t3.5 11.5l33 131q10 24 16 29t26 5h137 q48 0 67 -7.5t19 -33.5q0 -17 -3 -28l-26 -120l-56 -20q-47 -259 -54 -289q-43 -189 -123 -291q-108 -138 -357 -223q-110 -38 -259 -70q-77 -17 -96 -17q-22 0 -22 18q0 17 20 66l23 64q24 55 44 68t94 25l253 40q-109 75 -177.5 248.5t-68.5 360.5l-92 20q-40 8 -40 32 q0 4 2 10l60 216q6 21 18.5 37t24.5 16q9 0 19.5 -5t11.5 -13q1 -5 3 -22.5t3.5 -26.5t4.5 -22t7.5 -21t10.5 -12h99zM572 694q10 11 21 11t23 -11l47 -47q11 -11 11 -22t-11 -22l-47 -47q-11 -10 -21 -10l-23 11l-47 48q-11 11 -11 21t11 21z" />
<glyph unicode="&#xfb43;" horiz-adv-x="935" d="M250 684q0 -43 14 -56t41 -13q4 0 12.5 0.5t13.5 0.5q26 0 40.5 -14t20.5 -52l8 -49q2 -12 2 -30q0 -25 -11.5 -31t-43.5 -6h-145q-49 0 -63 27t-14 87q0 24 -4.5 76t-4.5 80q0 182 60 345l27 83q6 18 19.5 28.5t26.5 10.5q18 0 18 -18q0 -29 10 -60t25 -44h189 q84 0 146 -17.5t94.5 -46.5t47.5 -60t15 -65v-2q1 -2 2 -8l2 -16q2 -9 3.5 -26.5t2.5 -40t1.5 -57.5t0.5 -77v-15q0 -169 20.5 -388t20.5 -307q0 -90 -11 -162q-7 -50 -28.5 -93t-34 -57.5t-36.5 -38.5q-27 -29 -38 -29q-2 0 -3 1q-10 5 -10 62q0 228 -9 505t-9 552 q0 50 -7 80t-27 55t-60.5 37t-103 18.5t-159.5 6.5q-40 0 -53.5 -18.5t-13.5 -53.5l3 -34q3 -33 3 -70zM513 594q10 11 21 11t23 -11l47 -47q11 -11 11 -22t-11 -22l-47 -47q-11 -10 -21 -10l-23 11l-47 48q-11 11 -11 21t11 21z" />
<glyph unicode="&#xfb44;" horiz-adv-x="975" d="M225 435q-33 0 -48.5 16.5t-23.5 70.5t-8 167q0 224 49 360l27 83q6 18 19.5 28.5t26.5 10.5q18 0 18 -18q0 -29 10 -60t25 -44h240q89 0 140.5 -12t89.5 -49.5t56 -101t29 -172.5l44 -426q0 -6 1 -17t1 -16q0 -102 -66.5 -178.5t-124.5 -76.5h-620q-33 0 -33 16 q0 3 4 15l41 134q10 24 15.5 28.5t26.5 4.5h406q130 0 176 17t46 65q0 24 -14 84q0 18 -34 175t-45 182q-22 53 -27 60q-32 50 -134 66q-76 13 -209 13q-40 0 -53.5 -18.5t-13.5 -53.5v-10q0 -22 10 -104q8 -57 57 -57h25q9 0 19 -1.5t14 -1.5t9.5 -3.5t6.5 -4.5t4 -8.5 t3 -10t2 -13.5l3 -18l6 -48q5 -30 5 -41q0 -21 -14 -26.5t-59 -5.5h-128zM550 592q10 11 21 11t23 -11l47 -47q11 -11 11 -22t-11 -22l-47 -47q-11 -10 -21 -10l-23 11l-47 48q-11 11 -11 21t11 21z" />
<glyph unicode="&#xfb45;" horiz-adv-x="1148" d="M444 979l-41 -119q-18 -23 -18 -46q0 -8 6 -40l54 -326q120 96 197 174t134 178q-26 47 -26 65q0 10 7 31l41 120q10 24 15.5 28.5t26.5 4.5h136q49 0 70.5 -9t21.5 -31q0 -11 -2 -16l-44 -103q-15 -34 -25 -41.5t-53 -16.5q-34 -9 -48 -23t-41 -59q-39 -63 -80 -119.5 t-101 -124.5l-91 -100l-114 -120q0 -105 29.5 -282.5t29.5 -275.5q0 -42 -24 -82t-40 -45l-36 -11q-23 -6 -34 -6q-6 0 -8 2q-6 5 -6 34v11q0 402 -80 1112q-4 28 -12.5 46t-24.5 28.5t-31 15t-44 9.5l-68 18q-40 10 -40 32q0 5 2 10l64 230q6 18 19.5 28.5t26.5 10.5 q18 0 18 -18q0 -29 10 -60t25 -44h130q53 0 63 -13q8 -9 9 -29.5t-3 -27.5zM526 807q10 11 21 11t23 -11l47 -47q11 -11 11 -22t-11 -22l-47 -47q-11 -10 -21 -10l-23 11l-47 48q-11 11 -11 21t11 21z" />
<glyph unicode="&#xfb46;" horiz-adv-x="1102" d="M99 0q-22 0 -29 6q-5 3 -5 10q0 6 3 14l48 135q8 23 14.5 28t27.5 5h462q101 0 101 26q0 9 -9.5 22t-30.5 34.5t-31 33.5q-217 258 -384 524l-98 33q-15 5 -22.5 9t-13.5 12.5t-2 20.5l64 230q6 18 19.5 28.5t26.5 10.5q18 0 18 -18q0 -27 14.5 -64t29.5 -51h130 q53 0 63 -13q8 -9 9 -29.5t-3 -27.5l-50 -108q-2 -3 -7 -9l-6 -8q-2 -2 -4.5 -6.5t-3 -7.5t0 -7t2.5 -8q76 -146 207 -315q40 68 57.5 129.5t17.5 143.5q-23 83 -23 93q0 12 7 30l34 102q15 41 59 41h136q49 0 70.5 -9t21.5 -31q0 -11 -2 -16l-44 -103q-15 -34 -25 -41.5 t-53 -16.5q-14 -4 -23.5 -9t-16 -17t-9 -17t-8 -26.5t-7.5 -27.5q-32 -109 -121 -312q43 -51 180 -179q35 -35 35 -66q0 -20 -13 -52l-19 -44q-19 -52 -45.5 -67t-86.5 -15h-663zM255 535q10 11 21 11t23 -11l47 -47q11 -11 11 -22t-11 -22l-47 -47q-11 -10 -21 -10l-23 11 l-47 48q-11 11 -11 21t11 21z" />
<glyph unicode="&#xfb47;" horiz-adv-x="1077" d="M157 860q-16 0 -27.5 8.5t-11.5 22.5q0 3 2 11l64 230q6 18 19.5 28.5t26.5 10.5q18 0 18 -18q0 -29 10 -60t25 -44h510q52 0 92 -20.5t60 -51.5t30 -61t10 -56q0 -281 -107 -504.5t-301 -365.5q-21 -13 -44 -13q-41 0 -41 44q0 11 5 33l28 111q8 37 22 50t56 33 q103 58 180 171t77 234q0 111 -48.5 159t-161.5 48h-493zM230 -410q-43 -15 -53 -15q-14 0 -17 12.5t-3 53.5v759q0 50 6 71t29 56l81 122q5 8 17 8q5 0 8.5 -2t2.5 -6q-18 -155 -18 -303q0 -106 12 -296.5t12 -291.5q0 -64 -23.5 -108t-53.5 -60zM525 591q10 11 21 11 t23 -11l47 -47q11 -11 11 -22t-11 -22l-47 -47q-11 -10 -21 -10l-23 11l-47 48q-11 11 -11 21t11 21z" />
<glyph unicode="&#xfb48;" horiz-adv-x="951" d="M850 110l-34 -76q-12 -28 -22 -39.5t-31 -21.5q-12 -5 -17 -5q-11 0 -11 46t-6.5 307.5t-6.5 302.5q0 59 -1.5 84.5t-11 60t-27.5 46t-54.5 25.5t-89 17t-133.5 3h-275q-16 0 -28 9t-12 23q0 2 2 10l64 230q6 18 19.5 28.5t26.5 10.5q18 0 18 -18q0 -29 10 -60t25 -44 h339q49 0 87 -9.5t63 -24.5t43 -41t27.5 -49.5t15.5 -59.5t8 -63l5 -68q3 -41 6 -67l26 -345q0 -8 2 -51t2 -49q0 -32 -6 -53t-23 -59zM377 591q10 11 21 11t23 -11l47 -47q11 -11 11 -22t-11 -22l-47 -47q-11 -10 -21 -10l-23 11l-47 48q-11 11 -11 21t11 21z" />
<glyph unicode="&#xfb49;" horiz-adv-x="1422" d="M859 592q10 11 21 11t23 -11l47 -47q11 -11 11 -22t-11 -22l-47 -47q-11 -10 -21 -10l-23 11l-47 48q-11 11 -11 21t11 21zM449 -18q-22 0 -34.5 1.5t-28.5 8t-26.5 22t-17.5 40.5q-20 74 -37 167t-24.5 142.5t-24.5 188.5l-22 172q-1 8 -3 26t-3 23t-4 16.5t-6 15.5 l-10 11q-7 8 -16 13t-22 11l-47 20q-3 1 -7.5 3t-7 3.5t-6.5 3.5t-6.5 3.5t-5 3.5t-4 4.5t-2.5 5.5t-1 6t2 9l64 230q5 16 19.5 28t26.5 12q6 0 12 -4.5t6 -14.5q0 -29 10 -60t25 -44h159q19 0 28.5 -0.5t18.5 -2.5t12 -6t3 -11q0 -12 -12 -42l-23 -61q-15 -37 -25 -51 t-23 -18.5t-17 -6.5q-19 -13 -25.5 -25t-6.5 -32q0 -12 1 -19q3 -26 8.5 -87.5t8.5 -87t9.5 -74.5t14.5 -77.5t20.5 -67.5t30 -71.5t40.5 -64.5q36 -45 47 -45q7 0 11 12t11 45l101 507q7 37 7 46q0 19 -25 30l-21 8l-12 4q-9 3 -11 5l-4 4q-4 4 -3 9t4 13l49 134 q10 24 15.5 28.5t26.5 4.5h193q19 0 28.5 -0.5t18 -2.5t11.5 -6t3 -11q0 -12 -12 -42l-23 -60q-12 -29 -21.5 -45t-14.5 -19t-14 -6t-15 -7q-10 -7 -18 -16t-13 -16.5t-9.5 -19.5t-6.5 -19t-5 -20t-4 -17l-130 -476q-8 -32 -8 -44t6 -16t22 -4q4 0 16.5 1t21.5 1 q56 8 104.5 30t86 52t70 73t56 85.5t45 98t36 102.5t29.5 105q8 34 8 48q0 5 -0.5 9t-1.5 7t-3.5 6t-3.5 5t-5 4l-6 3q-2 1 -7.5 3t-7.5 2.5t-9 2.5t-9 3l-21 7q-26 8 -29 14q-3 7 2 21l50 134q9 23 15 28t27 5h192q19 0 28.5 -0.5t18.5 -2.5t12 -6t3 -11q0 -12 -12 -42 l-24 -60q-15 -38 -24 -52.5t-22.5 -18t-17.5 -6.5q-12 -8 -21.5 -21t-16 -30.5t-10 -29.5t-7.5 -31t-5 -23q-56 -220 -73 -271q-68 -211 -186 -315q-170 -150 -504 -150z" />
<glyph unicode="&#xfb4a;" horiz-adv-x="1189" d="M826 1049q47 0 83.5 -10t61 -24.5t42.5 -41t28 -49t17.5 -60t10 -63t6 -68.5t6.5 -66l33 -486q1 -4 1 -12q0 -43 -28.5 -98t-60.5 -89q-17 -17 -30 -17q-26 0 -26 105q0 43 -8 271.5t-8 282.5q0 58 -1.5 83t-10.5 59t-27.5 46.5t-55 26.5t-89.5 17.5t-133 3.5h-161 q-45 0 -72 -55.5t-27 -115.5l32 -440q0 -9 1 -25t1 -23q0 -13 -1 -25.5t-2 -20t-5 -19.5t-4.5 -15.5t-6 -17.5t-6.5 -16q-26 -62 -44.5 -74.5t-85.5 -12.5h-153q-55 0 -55 23q0 5 18 59q16 42 33 53.5t76 22.5q66 10 81.5 28t15.5 91v8l-5 360q0 15 2 30.5t4 26.5t8 26 t8.5 22.5t11 22.5t11.5 19l12 20q11 17 12 19l-64 29q-3 1 -10 4t-10 4.5t-8 4.5t-7 5.5t-4 6.5t-2 8q0 3 2 9l64 230q6 18 19.5 28.5t26.5 10.5q18 0 18 -18q0 -29 10 -60t25 -44h430zM644 588.189q10 11.1895 21 11.1895t23 -11.1895l47 -47.8086q11 -11.1895 11 -22.3789 t-11 -22.3789l-47 -47.8086q-11 -10.1719 -21 -10.1719l-23 11.1885l-47 48.8262q-11 11.1895 -11 21.3623q0 10.1719 11 21.3613z" />
<glyph unicode="&#xfb4b;" horiz-adv-x="597" d="M420 1386q13 13 26 13q11 0 23 -11l54 -54q11 -11 11.5 -23t-11.5 -25l-54 -54q-12 -11 -24 -11t-24 11l-54 54q-11 12 -11 24t11 24zM477 801q0 -31 -0.5 -92t-0.5 -81q0 -77 18 -212.5t18 -215.5q0 -50 -21.5 -93t-59.5 -93q-10 -13 -14.5 -16t-20.5 -8l-30 -8 q-9 -2 -14 -2t-6 2q-4 3 -4 18v785q0 36 -17.5 51t-67.5 24q-144 24 -146 24q-16 3 -25 18q-6 10 -6 22q0 5 1 10l51 198q5 17 21 28t30 11q13 0 13 -9q0 -29 9.5 -59t24.5 -43q67 -14 113 -30.5t72.5 -33t40 -41t17.5 -46.5t4 -57v-51z" />
<glyph unicode="&#xfb4c;" horiz-adv-x="976" d="M344 1190q-10 0 -10 8q0 2 1 6l21 80q5 15 17 15h310q12 0 12 -9q0 -2 -1 -6l-21 -80q-5 -14 -19 -14h-310zM837 0h-744q-22 0 -29 6q-4 3 -4 9t4 16l49 134q10 24 15.5 28.5t26.5 4.5h517q33 0 44 5t11 20v20q-8 57 -16.5 130t-13.5 120.5t-14 104t-19 91.5t-28 71 t-42 55.5t-60 32t-83 12.5h-264q-20 0 -32 12t-6 30l64 230q6 17 21.5 28t29.5 11q13 0 13 -9q0 -30 10.5 -65t24.5 -48h194q76 0 127 -13.5t86 -61.5t53 -93.5t27.5 -157.5t11 -201.5t1.5 -274.5v-7q0 -28 4.5 -35t24.5 -7h54q21 0 28 -8q4 -4 4 -11t-3 -17l-41 -130 q-9 -23 -16 -27.5t-30 -4.5z" />
<glyph unicode="&#xfb4d;" horiz-adv-x="976" d="M323 1189q-10 0 -10 8q0 2 1 6l21 80q5 15 17 15h310q12 0 12 -9q0 -2 -1 -6l-21 -80q-5 -14 -19 -14h-310zM115 165q11 24 16.5 28.5t25.5 4.5h516q75 0 99 26t24 96v87q0 50 -2 88t-9.5 88t-21 86t-38.5 74.5t-59 62t-86 39t-117 15.5h-275q-20 0 -32 12t-6 30l64 230 q6 17 21.5 28t29.5 11q13 0 13 -9q0 -30 10.5 -65t24.5 -48h318q48 0 86.5 -20.5t64.5 -52.5t47 -85.5t33 -104t22.5 -125t15.5 -132t13 -140.5t15 -136q0 -84 -67.5 -168.5t-133.5 -84.5h-634q-22 0 -29 6q-4 3 -4 9t4 16z" />
<glyph unicode="&#xfb4e;" horiz-adv-x="975" d="M360 1196q-10 0 -10 8q0 2 1 6l21 80q5 15 17 15h310q12 0 12 -9q0 -2 -1 -6l-21 -80q-5 -14 -19 -14h-310zM225 435q-33 0 -48.5 16.5t-23.5 70.5t-8 167q0 224 49 360l27 83q6 18 19.5 28.5t26.5 10.5q18 0 18 -18q0 -29 10 -60t25 -44h240q89 0 140.5 -12t89.5 -49.5 t56 -101t29 -172.5l44 -426q0 -6 1 -17t1 -16q0 -102 -66.5 -178.5t-124.5 -76.5h-620q-33 0 -33 16q0 3 4 15l41 134q10 24 15.5 28.5t26.5 4.5h406q130 0 176 17t46 65q0 24 -14 84q0 18 -34 175t-45 182q-22 53 -27 60q-32 50 -134 66q-76 13 -209 13q-40 0 -53.5 -18.5 t-13.5 -53.5v-10q0 -22 10 -104q8 -57 57 -57h25q9 0 19 -1.5t14 -1.5t9.5 -3.5t6.5 -4.5t4 -8.5t3 -10t2 -13.5l3 -18l6 -48q5 -30 5 -41q0 -21 -14 -26.5t-59 -5.5h-128z" />
<glyph unicode="&#xfb4f;" horiz-adv-x="1419" d="M207 828q-53 0 -77.5 33.5t-24.5 78.5q0 68 4 130t16 135.5t19.5 113.5t27.5 136l27 131q8 37 16 44.5t42 7.5h128q30 0 33.5 -10t-5.5 -34l-33 -116q-7 -23 -16.5 -30t-32.5 -7q-37 0 -47.5 -3t-19.5 -17q-38 -63 -38 -186q0 -63 21 -135q17 -51 66 -51h86q62 0 87 -6.5 t57 -36.5l341 -409q31 -37 43 -37q18 0 48 47t53 110t23 102q0 15 -16 27.5t-13 20.5l62 156q10 24 15.5 28.5t26.5 4.5h160q19 0 26.5 -8t1.5 -28l-36 -121q-5 -16 -11 -23t-12 -8t-23 -1q-46 0 -74.5 -28.5t-28.5 -63.5q0 -66 -21.5 -139t-42.5 -122t-21 -59q0 -20 27 -47 q38 -41 66 -67t44 -37l52 -37l68 -49q17 -13 17 -23q0 -9 -8 -23l-74 -149q-6 -10 -8 -13q-2 -2 -5 -2h-3q-4 2 -13 11l-153 143l-163 153l-141 137q-84 84 -152.5 160.5t-130.5 155.5q-25 35 -60.5 47.5t-128.5 12.5h-71z" />
</font>
</defs>
</svg>
